<?xml version="1.0" encoding="UTF-8"?>
<svg width="168px" height="96px" viewBox="0 0 168 96" version="1.1" xmlns="http://www.w3.org/2000/svg" xmlns:xlink="http://www.w3.org/1999/xlink">
    <title>优惠券</title>
    <g id="pc端" stroke="none" stroke-width="1" fill="none" fill-rule="evenodd">
        <g id="PC端-优惠券（两个）" transform="translate(-774.000000, -463.000000)">
            <g id="优惠券" transform="translate(774.000000, 463.000000)">
                <path d="M168,0 L168,8 L168,8 C164.686292,8 162,10.6862915 162,14 C162,17.3137085 164.686292,20 168,20 L168,25 L168,25 C164.686292,25 162,27.6862915 162,31 C162,34.3137085 164.686292,37 168,37 L168,42 L168,42 C164.686292,42 162,44.6862915 162,48 C162,51.3137085 164.686292,54 168,54 L168,59 L168,59 C164.686292,59 162,61.6862915 162,65 C162,68.3137085 164.686292,71 168,71 L168,76 L168,76 C164.686292,76 162,78.6862915 162,82 C162,85.3137085 164.686292,88 168,88 L168,96 L0,96 L0,88 L0,88 C3.3137085,88 6,85.3137085 6,82 C6,78.6862915 3.3137085,76 0,76 L0,71 L0,71 C3.3137085,71 6,68.3137085 6,65 C6,61.6862915 3.3137085,59 0,59 L0,54 L0,54 C3.3137085,54 6,51.3137085 6,48 C6,44.6862915 3.3137085,42 0,42 L0,37 L0,37 C3.3137085,37 6,34.3137085 6,31 C6,27.6862915 3.3137085,25 0,25 L0,20 L0,20 C3.3137085,20 6,17.3137085 6,14 C6,10.6862915 3.3137085,8 0,8 L0,0 L168,0 Z" id="形状结合" fill="#FFFFFF"></path>
                <line x1="10" y1="8" x2="10" y2="88" id="直线-4" stroke="#FFC887" stroke-dasharray="4"></line>
                <line x1="158" y1="8" x2="158" y2="88" id="直线-4备份-3" stroke="#FFC887" stroke-dasharray="4"></line>
            </g>
        </g>
    </g>
</svg>