<?xml version="1.0" encoding="UTF-8"?>
<svg width="190px" height="172px" viewBox="0 0 190 172" version="1.1" xmlns="http://www.w3.org/2000/svg" xmlns:xlink="http://www.w3.org/1999/xlink">
    <title>管理弹窗公告</title>
    <defs>
        <rect id="path-1" x="31" y="24" width="128" height="116"></rect>
        <filter x="-21.9%" y="-22.4%" width="143.8%" height="148.3%" filterUnits="objectBoundingBox" id="filter-2">
            <feGaussianBlur stdDeviation="0" in="SourceGraphic"></feGaussianBlur>
        </filter>
        <filter x="-33.6%" y="-35.3%" width="167.2%" height="174.1%" filterUnits="objectBoundingBox" id="filter-3">
            <feOffset dx="0" dy="2" in="SourceAlpha" result="shadowOffsetOuter1"></feOffset>
            <feGaussianBlur stdDeviation="14" in="shadowOffsetOuter1" result="shadowBlurOuter1"></feGaussianBlur>
            <feColorMatrix values="0 0 0 0 0.840636322   0 0 0 0 0.833155813   0 0 0 0 0.833155813  0 0 0 0.5 0" type="matrix" in="shadowBlurOuter1"></feColorMatrix>
        </filter>
    </defs>
    <g id="后台" stroke="none" stroke-width="1" fill="none" fill-rule="evenodd">
        <g id="列表展示、产品分类-缺省状态" transform="translate(-1046.000000, -1125.000000)">
            <g id="管理弹窗公告" transform="translate(1046.000000, 1127.000000)">
                <rect id="矩形" fill="#FFFFFF" opacity="0.010811942" x="0" y="0" width="190" height="165"></rect>
                <g id="编组-2备份-2" transform="translate(179.218835, 20.365478) rotate(41.000000) translate(-179.218835, -20.365478) translate(171.718835, 12.865478)" fill="#FFD7D7">
                    <rect id="矩形" x="0.589487322" y="6.2068339" width="14.3362832" height="2.38938053"></rect>
                    <polygon id="矩形备份" transform="translate(7.757629, 7.401524) rotate(-270.000000) translate(-7.757629, -7.401524) " points="0.589487322 6.2068339 14.9257705 6.2068339 14.9257705 8.59621443 0.589487322 8.59621443"></polygon>
                </g>
                <g id="矩形备份-5" opacity="0.62949673" filter="url(#filter-2)">
                    <use fill="black" fill-opacity="1" filter="url(#filter-3)" xlink:href="#path-1"></use>
                    <use fill="#FFFFFF" fill-rule="evenodd" xlink:href="#path-1"></use>
                </g>
                <g id="编组" transform="translate(142.000000, 123.000000)" fill-rule="nonzero">
                    <path d="M1,24 L8.20062525,24 L8.20062525,12.3122855 L6.23019864,10.9230392 L1,15.4183517 L1,24 Z M9.89968737,24 L17.1003126,24 L17.1003126,12.3804483 L13.6216043,15.3364583 L9.89968737,13.2930453 L9.89968737,24 Z M18.7993747,11.0049326 L18.7993747,24 L26,24 L26,11.0863357 L22.9261539,7 L18.7993747,11.0049326 Z" id="形状" fill="#C8E0E3"></path>
                    <path d="M2.21571041,12.2422301 L6.15795475,9.01752212 L13.6891222,13.5009558 L22.6203801,5.27575221 C22.6526335,5.24612389 22.6790226,5.21171681 22.7063891,5.17874336 L24.2105701,6.66637168 L26.6329955,0 L19.6838552,2.18915044 L21.3468597,3.834 C21.3248688,3.85072566 21.3014118,3.86458407 21.2803982,3.88369912 L13.4335385,11.1106195 L5.97860633,6.67306195 L0.961737557,10.7761062 C0.547330317,11.1149204 0.492597285,11.7175221 0.839076923,12.1222832 C1.18555656,12.5270442 1.80228054,12.5815221 2.21571041,12.2422301 Z M26.0226244,25.0884956 L0.977375566,25.0884956 C0.437864253,25.0884956 0,25.5166726 0,26.0442478 C0,26.571823 0.437864253,27 0.977375566,27 L26.0226244,27 C26.5621357,27 27,26.571823 27,26.0442478 C27,25.5166726 26.5621357,25.0884956 26.0226244,25.0884956 Z" id="形状" fill="#A5C8CC"></path>
                </g>
                <g id="编组" transform="translate(59.000000, 55.000000)" fill-rule="nonzero">
                    <path d="M62.3365022,10 C64.7649046,10 66.9491102,11.769881 67.2177268,14.0039014 L71.94972,46.6334612 C72.3648547,50.1089148 70.1643693,53 67.0115161,53 L25.9782976,53 C22.830871,53 20.6330989,50.1005267 21.0509469,46.6250732 L25.7829401,14.0011054 C26.0515567,11.769881 28.2303356,10 30.6641647,10 L62.3365022,10 Z" id="路径" fill="#C8E0E3"></path>
                    <path d="M50.2512161,0 C53.2018812,0 55.8594525,2.2670602 56.1863647,5.12187675 L61.9383297,46.8525775 C62.4456074,51.3027327 59.7683087,55 55.9355441,55 L6.05324116,55 C2.22893124,55 -0.445549251,51.2915373 0.0617284061,46.8469798 L5.81369335,5.11627909 C6.14342383,2.2670602 8.79254051,0.00279886162 11.7516602,0.00279886162 L50.248398,0.00279886162 L50.2512161,0 Z" id="路径" fill="#A5C8CC"></path>
                    <path d="M35.8637256,31.2600667 C38.7172114,31.2600667 41,33.6068887 41,36.5432782 L41,37.7166891 C41,40.6530786 38.7172114,42.9999507 35.8637256,42.9999507 C34.4989462,43.0060209 33.1883448,42.451364 32.2232909,41.4592398 C31.258237,40.4671157 30.718714,39.1197512 30.7246186,37.7166891 L30.7246186,36.5432782 C30.7246186,33.6097507 33.007456,31.2600667 35.8637256,31.2600667 Z M35.8637256,34.7802997 C34.925305,34.8015105 34.1694823,35.5785344 34.1488503,36.5432782 L34.1488503,37.7166891 C34.1694823,38.6814329 34.925305,39.4584568 35.8637256,39.4796676 C36.801059,39.4569499 37.5552421,38.6803508 37.5758171,37.7166891 L37.5758171,36.5432782 C37.5537778,35.5807339 36.8000067,34.8058191 35.8637256,34.7831617 L35.8637256,34.7802997 Z M22.139155,16 C24.9926408,16 27.2782133,18.346822 27.2782133,21.2832114 L27.2782133,22.4566224 C27.2782133,25.3901498 24.9954246,27.7398839 22.139155,27.7398839 C20.7743757,27.7459541 19.4637742,27.1912972 18.4987203,26.1991731 C17.5336664,25.2070489 16.9941434,23.8596845 17.000048,22.4566224 L17.000048,21.2832114 C17.000048,18.3468219 19.2828854,16 22.139155,16 Z M22.139155,19.520233 C21.2018217,19.5429507 20.4476385,20.3195497 20.4270636,21.2832114 L20.4270636,22.4566224 C20.4491028,23.4191667 21.2028739,24.1940814 22.139155,24.2167389 C23.0754362,24.1940814 23.8292073,23.4191667 23.8512465,22.4566224 L23.8512465,21.2832114 C23.8292073,20.3206671 23.0754362,19.5457523 22.139155,19.5230949 L22.139155,19.520233 Z M35.6243112,17.8774576 C36.1950084,17.0560699 37.2222633,16.9387287 38.0212393,17.5254343 C38.8202153,18.1121398 38.9343547,19.1682097 38.3636576,19.9924593 L22.3785694,41.4716043 C21.8078722,42.292992 20.7778335,42.4103331 19.9788575,41.8236276 C19.1798815,41.2369221 19.065742,40.1808522 19.6364392,39.3594645 L35.6243112,17.8745956 L35.6243112,17.8774576 Z" id="形状" fill="#FFFFFF"></path>
                </g>
                <circle id="椭圆形备份-4" fill="#FDAD37" opacity="0.148414789" cx="9.55752212" cy="132.451327" r="7.16814159"></circle>
                <circle id="椭圆形备份-5" stroke="#FCCFA5" stroke-width="3.18584071" opacity="0.472749256" cx="171.823009" cy="78.6017699" r="5.17699115"></circle>
                <g id="编组备份-3" transform="translate(33.309735, 25.000000) scale(-1, 1) translate(-33.309735, -25.000000) translate(18.809735, 11.000000)" fill-rule="nonzero">
                    <path d="M0.809734513,14 C0.809734513,6.2680135 7.07774802,1.42034288e-15 14.8097345,0 C22.541721,-1.42034288e-15 28.8097345,6.2680135 28.8097345,14 C28.8097345,21.7319865 22.541721,28 14.8097345,28 C7.07774802,28 0.809734513,21.7319865 0.809734513,14 Z" id="形状" fill="#FFC392"></path>
                    <g id="编组" transform="translate(14.809735, 14.000000) scale(-1, 1) translate(-14.809735, -14.000000) translate(7.809735, 7.000000)" fill="#FFFFFF">
                        <path d="M0.000174974481,4.81071066 C0.000174974481,4.5366861 0.0918299137,4.3035161 0.275139806,4.11319357 C0.450677658,3.92681871 0.689513648,3.82402666 0.937300012,3.82820802 L2.05773494,3.82820802 L2.05773494,8.28235282 L0.937300012,8.28235282 C0.689453758,8.2868776 0.450496865,8.18403352 0.275139806,7.99736727 C0.0951194766,7.81668406 -0.00476571904,7.56330027 0.000174974481,7.29985019 L0.000174974481,4.81071066 Z M10.4142341,0.72226409 C10.8416455,0.289803504 11.2279056,0.0516512327 11.574885,0.00980022233 C11.9227997,-0.0330472605 12.2295632,0.0646051409 12.497046,0.302757397 C12.765464,0.53991321 12.9927309,0.888671747 13.1816523,1.34803656 C13.3705737,1.80640494 13.5239554,2.32057467 13.6427328,2.88456705 C13.7615101,3.45055235 13.8503593,4.04244541 13.9111508,4.66124271 C13.9700719,5.27904355 14,5.86794726 14,6.42795384 C14,6.98796042 13.9625898,7.54796698 13.8877695,8.10797356 C13.8188658,8.64233342 13.7093938,9.16985816 13.5604304,9.68535861 C13.4341188,10.1336202 13.264556,10.5667323 13.0544577,10.9777581 C12.86086,11.3474422 12.6448162,11.6214668 12.4072615,11.8008283 C12.1687716,11.9801898 11.9125119,12.0449592 11.6403528,11.9901543 C11.3681938,11.9383388 11.0820059,11.7310766 10.7855302,11.3723535 C10.4974718,11.0136304 10.1074707,10.7146945 9.61739728,10.4775387 C9.09891271,10.2290222 8.56174578,10.0273615 8.01156527,9.87468468 C7.43056123,9.7109232 6.84215881,9.5785582 6.24861048,9.47809639 C5.65285334,9.37845108 5.10759996,9.28877032 4.61191505,9.20905408 C4.11529489,9.12933785 3.70191239,9.05261096 3.36896178,8.977877 C3.03694642,8.90413949 2.84989552,8.81545516 2.81061483,8.7088347 L2.81061483,3.74649888 C2.84989552,3.59902384 3.00701828,3.47745658 3.2782421,3.38179709 C3.61988824,3.26890377 3.96786805,3.17904518 4.32011563,3.11275479 C4.79616019,3.0170953 5.27220475,2.92542163 5.74918456,2.83574085 C6.29670115,2.73086001 6.83815753,2.59279315 7.37091591,2.42221288 C7.9245866,2.2458407 8.46516371,2.02363168 8.98516523,1.75658228 C9.50864299,1.49222073 9.99067652,1.143339 10.4142341,0.72226409 Z M5.05803146,10.1795993 C5.10759994,10.3061488 5.16745624,10.4436593 5.23572982,10.5921308 C5.29465086,10.7296413 5.3741475,10.8880774 5.47421973,11.0674389 C5.57242145,11.2468004 5.69119878,11.4421052 5.83148696,11.6533532 C6.00637956,11.9174133 6.17753114,12.1844627 6.34400644,12.4545014 C6.51796378,12.7335083 6.64983467,12.9876038 6.73868384,13.2157915 C6.82753302,13.4429828 6.85465541,13.6293195 6.82098625,13.777791 C6.78638183,13.925266 6.64328788,14 6.39638069,14 L5.54810484,14 C5.34983088,14 5.16558573,13.9601419 4.99723992,13.8804256 C4.8165084,13.7918552 4.65285105,13.6681767 4.51464858,13.5157239 C4.33840781,13.3227531 4.17877446,13.1133225 4.03766877,12.8899514 C3.85049185,12.5963798 3.67452058,12.2948731 3.51018522,11.9861685 C3.28198311,11.5855944 3.12298984,11.2338465 3.03320541,10.9319213 C2.95686752,10.6860889 2.89747687,10.4346466 2.85550704,10.1795993 C2.81565764,9.98122638 2.81565764,9.7761146 2.85550704,9.57774169 C2.93500368,9.58770622 3.02946439,9.60962818 3.13888917,9.64051823 C3.22773834,9.66044728 3.33809838,9.68834797 3.46622826,9.71923802 C3.59529338,9.75112451 3.74399885,9.78201455 3.91234467,9.81390104 C4.08069048,9.85575207 4.23220172,9.89561019 4.36687837,9.9334754 C4.49033197,9.96635835 4.61191506,10.0062165 4.73162764,10.0530498 C4.84105242,10.0919114 4.9504772,10.1337624 5.05803146,10.1795993 L5.05803146,10.1795993 Z" id="形状"></path>
                    </g>
                </g>
            </g>
        </g>
    </g>
</svg>