<?xml version="1.0" encoding="UTF-8"?>
<svg width="190px" height="177px" viewBox="0 0 190 177" version="1.1" xmlns="http://www.w3.org/2000/svg" xmlns:xlink="http://www.w3.org/1999/xlink">
    <title>添加和管理商品备份</title>
    <defs>
        <rect id="path-1" x="42.6548673" y="27.5221239" width="93.9823009" height="119.469027"></rect>
        <filter x="-29.8%" y="-21.8%" width="159.6%" height="146.9%" filterUnits="objectBoundingBox" id="filter-2">
            <feGaussianBlur stdDeviation="0" in="SourceGraphic"></feGaussianBlur>
        </filter>
        <filter x="-45.8%" y="-34.3%" width="191.5%" height="172.0%" filterUnits="objectBoundingBox" id="filter-3">
            <feOffset dx="0" dy="2" in="SourceAlpha" result="shadowOffsetOuter1"></feOffset>
            <feGaussianBlur stdDeviation="14" in="shadowOffsetOuter1" result="shadowBlurOuter1"></feGaussianBlur>
            <feColorMatrix values="0 0 0 0 0.840636322   0 0 0 0 0.833155813   0 0 0 0 0.833155813  0 0 0 0.5 0" type="matrix" in="shadowBlurOuter1"></feColorMatrix>
        </filter>
    </defs>
    <g id="后台" stroke="none" stroke-width="1" fill="none" fill-rule="evenodd">
        <g id="列表展示、产品分类-缺省状态" transform="translate(-337.000000, -1127.000000)">
            <g id="添加和管理商品备份" transform="translate(337.000000, 1127.000000)">
                <g id="编组" transform="translate(123.539823, 112.000000)" fill="#FCC690" fill-rule="nonzero">
                    <path d="M41.7273077,40.2208847 C38.6288462,38.6981539 39.7316538,39.9049231 35.7413654,38.2252308 C31.5930961,36.5435 30.5962884,35.9666154 30.5962885,35.9666154 L30.5443077,32.0792692 C30.5443077,32.0792692 32.1190192,30.9244808 32.5919423,27.2481154 C33.58875,27.5100577 33.9036923,26.1442884 33.9566923,25.250423 C34.0086731,24.4105769 34.5335769,21.6790384 33.3268077,21.942 C33.58875,20.1563077 33.7987115,18.4755962 33.64175,17.6347308 C33.3787885,14.58825 31.2261731,11.4378077 25.9241346,11.1748461 C21.4089423,11.4367885 18.4684615,14.5892692 18.1535193,17.6347308 C18.0485385,18.4755961 18.2585,20.1563077 18.4694808,21.942 C17.2616923,21.6790385 17.8385769,24.410577 17.8385769,25.2514423 C17.8915769,26.1442885 18.2055,27.5620384 19.2043462,27.2470962 C19.67625,30.9244808 21.1989808,32.1322693 21.1989808,32.1322693 L21.1459807,36.0715961 C21.1459807,36.0715961 20.149173,36.6495 16.0009039,38.3821923 C11.9586346,40.0639231 13.1134231,38.8031346 10.0159807,40.3258654 C6.54566185,36.3325935 4.62661893,31.2247921 4.60896154,25.9343269 C4.61711542,14.1601731 14.1550769,4.61711542 25.9241346,4.60896154 C37.6921731,4.61711542 47.2311539,14.1591538 47.2393077,25.9343269 C47.2393077,31.4483654 45.1396923,36.4395385 41.7262885,40.2208847 L41.7273077,40.2208847 Z M26.5,0 C11.872,0 0,11.872 0,26.5 C0,41.128 11.872,53 26.5,53 C41.128,53 53,41.128 53,26.5 C53,11.819 41.181,0 26.5,0 Z" id="形状"></path>
                </g>
                <g id="矩形" opacity="0.62949673" filter="url(#filter-2)">
                    <use fill="black" fill-opacity="1" filter="url(#filter-3)" xlink:href="#path-1"></use>
                    <use fill="#FFFFFF" fill-rule="evenodd" xlink:href="#path-1"></use>
                </g>
                <g id="编组-2" transform="translate(179.218835, 22.807956) rotate(41.000000) translate(-179.218835, -22.807956) translate(171.718835, 15.307956)" fill="#FCCFA5">
                    <rect id="矩形" x="0.589487322" y="6.2068339" width="14.3362832" height="2.38938053"></rect>
                    <polygon id="矩形备份" transform="translate(7.757629, 7.401524) rotate(-270.000000) translate(-7.757629, -7.401524) " points="0.589487322 6.2068339 14.9257705 6.2068339 14.9257705 8.59621443 0.589487322 8.59621443"></polygon>
                </g>
                <rect id="矩形备份-2" fill="#C8D9DB" x="74.5132743" y="86.8584071" width="29.4690265" height="6.37168142"></rect>
                <rect id="矩形备份-3" fill="#C8D9DB" transform="translate(88.849558, 90.044248) rotate(-270.000000) translate(-88.849558, -90.044248) " x="74.5132743" y="86.8584071" width="28.6725664" height="6.37168142"></rect>
                <g id="编组" fill-rule="nonzero">
                    <path d="M0,32.6548673 C-2.2086242e-15,14.6200821 14.6200821,3.31293629e-15 32.6548673,0 C50.6896525,-3.31293629e-15 65.3097345,14.6200821 65.3097345,32.6548673 C65.3097345,50.6896525 50.6896525,65.3097345 32.6548673,65.3097345 C14.6200821,65.3097345 2.2086242e-15,50.6896525 0,32.6548673 Z" id="形状" fill="#A5C8CC"></path>
                    <g transform="translate(16.000000, 14.000000)" fill="#FFFFFF" id="形状">
                        <path d="M33.444424,9.03950852 L17.6051491,0.170682183 C17.2112099,-0.056894061 16.720013,-0.056894061 16.3260738,0.170682183 L0.543071063,9.03864402 C0.142020229,9.26686999 0,9.67923281 0,10.1296333 L0,27.8690149 C0,28.3202799 0.1491659,28.7369652 0.555575988,28.9608687 L16.3948509,37.8322885 C16.5859976,37.9412145 16.8030474,37.9991355 17.0245632,38 C17.2469723,38 17.4649153,37.9412145 17.6658873,37.8322885 L33.4506765,28.9600042 C33.8508341,28.7326427 34,28.3202799 34,27.8690149 L34,10.1296333 C34,9.6800973 33.8454748,9.26254752 33.444424,9.03950852 Z M27.195534,15.1056509 L17.8945488,20.18973 L17.8945488,30.3630752 C17.8945488,30.3795005 17.8900828,30.3941969 17.8900828,30.4088933 C17.8695389,30.9310466 17.7507422,31.3364935 17.2835939,31.4272652 C17.0765841,31.5553524 16.8361607,31.6237212 16.5904637,31.6243694 L16.5154341,31.6243694 C15.795412,31.6238926 15.2118417,31.0590841 15.211349,30.3622107 L15.211349,19.9096345 C15.211349,19.8249142 15.2202811,19.741923 15.2363589,19.6615252 L6.89646657,15.1108378 C6.26943386,14.7650409 5.91661631,13.9904558 6.27389991,13.3861757 C6.64011559,12.7853536 7.36093524,12.573553 7.9835019,12.9193499 L17.036175,17.9956486 L26.1067122,12.9202144 C26.7292789,12.5744175 27.4241955,12.7810311 27.7823723,13.3835822 C28.1396559,13.9869979 27.8189938,14.7607184 27.195534,15.1065154 L27.195534,15.1056509 Z"></path>
                    </g>
                </g>
                <circle id="椭圆形" fill="#FFD7D7" cx="9.55752212" cy="123.893805" r="7.16814159"></circle>
                <circle id="椭圆形备份" stroke="#C8D9DB" stroke-width="3.18584071" cx="173.823009" cy="76.0442478" r="5.17699115"></circle>
            </g>
        </g>
    </g>
</svg>