<?xml version="1.0" encoding="UTF-8"?>
<svg width="80px" height="80px" viewBox="0 0 80 80" version="1.1" xmlns="http://www.w3.org/2000/svg" xmlns:xlink="http://www.w3.org/1999/xlink">
    <!-- Generator: Sketch 52.2 (67145) - http://www.bohemiancoding.com/sketch -->
    <title>icon </title>
    <desc>Created with Sketch.</desc>
    <g id="页面-1" stroke="none" stroke-width="1" fill="none" fill-rule="evenodd">
        <g id="数据跟踪代码嵌入-很多" transform="translate(-280.000000, -80.000000)">
            <g id="title" transform="translate(280.000000, 80.000000)">
                <g id="icon-">
                    <circle id="Oval-5" fill="#24C1E2" cx="40" cy="40" r="40"></circle>
                    <g id="icon" transform="translate(21.000000, 21.000000)" fill="#FFFFFF">
                        <path d="M3.27305567,15.2824862 C1.46511925,10.500263 1.43687024,6.21075366 3.72503977,3.8631168 C7.90589274,-0.426392527 18.4427722,3.10955435 26.6914821,11.6016235 C28.4860761,13.4373349 30.1037711,15.4464907 31.5220622,17.6011399 C31.8892993,16.9055438 32.2282874,16.2099477 32.5107775,15.5433348 C31.1719909,13.6483282 29.6889872,11.8651155 28.0756834,10.2104313 C18.7535113,0.617001633 7.48215765,-2.77402939 2.48208348,2.44294141 C-0.76655227,5.66007341 -0.710054257,11.2828086 1.97360137,17.3692745 C2.48208348,16.6157121 2.82107156,15.9780823 3.27305567,15.2824862 Z M34.7142,23.7455722 C36.5221364,28.5277954 36.5503854,32.8173048 34.2622159,35.1649416 C30.0813629,39.4544509 19.5444834,35.9185041 11.2957735,27.4264349 C9.50117958,25.5907235 7.88348452,23.5815677 6.46519341,21.4269185 C6.09795632,22.1225146 5.75896825,22.8181107 5.47647818,23.4847236 C6.8152647,25.3797302 8.29826845,27.1629429 9.91157221,28.8176271 C19.2337444,38.3820736 30.533347,41.7731046 35.6181682,36.5561338 C38.7538079,33.3390018 38.6973099,27.8611825 36.0136543,21.6298007 C35.6464172,22.4123463 35.1944331,23.0499761 34.7142,23.7455722 Z" id="形状" fill-rule="nonzero"></path>
                        <path d="M3.72715607,35.1309273 C-0.365308554,30.847355 2.99333482,20.080538 11.2629357,11.6002225 C11.996757,10.847703 12.7305782,10.1820127 13.4643995,9.51632239 L15.2425048,7.92445429 L15.4118482,7.92445429 L17.1052818,6.67990286 C16.4279083,6.29399544 15.7599428,5.95632645 15.1013853,5.66689589 C13.2473942,7.02820392 11.5014611,8.53796397 9.87996494,10.1820127 C0.566079946,19.7621644 -2.73611564,31.3104439 2.45708084,36.5491371 C5.47703749,39.7618164 10.924249,39.7618164 16.8794906,36.8675107 C16.2021172,36.4623079 15.5247437,35.999219 14.8473703,35.5071871 C10.1904278,37.4753149 6.01329148,37.4753149 3.72715607,35.1309273 Z M23.1169712,3.38039443 C27.7739137,1.52803882 31.95105,1.52803882 34.2371854,3.84348333 C38.4143217,8.12705569 34.9710067,18.9228157 26.7014057,27.3741882 C24.9124878,29.2028079 22.9560093,30.8505192 20.8590597,32.2945078 C21.5364331,32.6804152 22.2138066,33.0180842 22.89118,33.3075148 C24.7364697,31.9357403 26.4729601,30.4163069 28.0843765,28.7634549 C37.3982615,19.2122463 40.7004571,7.63502373 35.6201562,2.42527357 C32.4590801,-0.758462642 26.9554208,-0.758462642 21.0566269,2.135843 C21.7340004,2.54104579 22.4113739,3.0041347 23.0887473,3.4672236 L23.1169712,3.38039443 Z" id="形状" fill-rule="nonzero"></path>
                        <path d="M13.3412197,19.2194405 L15.8579722,21.736193 C16.2484965,22.1267173 16.2484965,22.7598823 15.8579722,23.1504065 C15.4674479,23.5409308 14.834283,23.5409308 14.4437587,23.1504065 L11.2971336,20.0037815 C11.0899634,19.7966113 10.9926955,19.5211566 11.0053297,19.2498662 C10.9754365,18.9606738 11.071291,18.660942 11.2928932,18.4393398 L14.4393398,15.2928932 C14.8298641,14.9023689 15.4630291,14.9023689 15.8535534,15.2928932 C16.2440777,15.6834175 16.2440777,16.3165825 15.8535534,16.7071068 L13.3412197,19.2194405 Z" id="左"></path>
                        <path d="M24.3412197,19.2194405 L26.8579722,21.736193 C27.2484965,22.1267173 27.2484965,22.7598823 26.8579722,23.1504065 C26.4674479,23.5409308 25.834283,23.5409308 25.4437587,23.1504065 L22.2971336,20.0037815 C22.0899634,19.7966113 21.9926955,19.5211566 22.0053297,19.2498662 C21.9754365,18.9606738 22.071291,18.660942 22.2928932,18.4393398 L25.4393398,15.2928932 C25.8298641,14.9023689 26.4630291,14.9023689 26.8535534,15.2928932 C27.2440777,15.6834175 27.2440777,16.3165825 26.8535534,16.7071068 L24.3412197,19.2194405 Z" id="左" transform="translate(24.575433, 19.221650) scale(-1, 1) translate(-24.575433, -19.221650) "></path>
                    </g>
                </g>
            </g>
        </g>
    </g>
</svg>