<?xml version="1.0" standalone="no"?><!DOCTYPE svg PUBLIC "-//W3C//DTD SVG 1.1//EN" "http://www.w3.org/Graphics/SVG/1.1/DTD/svg11.dtd"><svg t="1619089544513" class="icon" viewBox="0 0 1024 1024" version="1.1" xmlns="http://www.w3.org/2000/svg" p-id="7141" xmlns:xlink="http://www.w3.org/1999/xlink" width="16" height="16"><defs><style type="text/css"></style></defs><path d="M513.4336 956.0576a22.9376 22.9376 0 0 1-16.2816-6.7584l-413.5936-413.5936a23.04 23.04 0 1 1 32.5632-32.6144l397.312 397.3632 397.3632-397.3632a23.04 23.04 0 1 1 32.5632 32.6144l-413.5936 413.5936a22.9888 22.9888 0 0 1-16.3328 6.7584z" fill="#273a8a" p-id="7142"></path><path d="M510.5664 929.5872a22.9888 22.9888 0 0 1-23.04-23.04V90.9824a23.04 23.04 0 1 1 46.08 0v815.5648a23.04 23.04 0 0 1-23.04 23.04z" fill="#273a8a" p-id="7143"></path></svg>