<?xml version="1.0" encoding="UTF-8"?>
<svg width="72px" height="73px" viewBox="0 0 72 73" version="1.1" xmlns="http://www.w3.org/2000/svg" xmlns:xlink="http://www.w3.org/1999/xlink">
    <title>icon/App-goods</title>
    <g id="应用中心" stroke="none" stroke-width="1" fill="none" fill-rule="evenodd">
        <g id="应用中心-应用商城" transform="translate(-1278.000000, -1487.000000)">
            <g id="icon/App-goods备份-2" transform="translate(1278.000000, 1487.000000)">
                <g id="编组-21" transform="translate(4.000000, 5.000000)">
                    <g id="编组-19" transform="translate(28.000000, 35.000000) rotate(-1.000000) translate(-28.000000, -35.000000) translate(6.000000, 13.000000)" fill="#2C314D">
                        <path d="M4.85396207,0.0401748951 L5.21877146,0.0401748951 C5.77105621,0.0401748951 6.21877146,0.487890145 6.21877146,1.0401749 L6.21877146,8.49941243 C6.21877146,9.05169718 5.77105621,9.49941243 5.21877146,9.49941243 L4.85396207,9.49941243 C4.30167732,9.49941243 3.85396207,9.05169718 3.85396207,8.49941243 L3.85396207,1.0401749 C3.85396207,0.487890145 4.30167732,0.0401748951 4.85396207,0.0401748951 Z" id="矩形" transform="translate(5.036367, 4.769794) rotate(-315.000000) translate(-5.036367, -4.769794) "></path>
                        <path d="M34.4140794,30.7826969 L34.7788888,30.7826969 C35.3311735,30.7826969 35.7788888,31.2304121 35.7788888,31.7826969 L35.7788888,39.2419344 C35.7788888,39.7942192 35.3311735,40.2419344 34.7788888,40.2419344 L34.4140794,40.2419344 C33.8617946,40.2419344 33.4140794,39.7942192 33.4140794,39.2419344 L33.4140794,31.7826969 C33.4140794,31.2304121 33.8617946,30.7826969 34.4140794,30.7826969 Z" id="矩形备份-10" transform="translate(34.596484, 35.512316) rotate(-315.000000) translate(-34.596484, -35.512316) "></path>
                        <path d="M9.1697392,4.17859138 L9.53454859,4.17859138 C10.0868333,4.17859138 10.5345486,4.62630663 10.5345486,5.17859138 L10.5345486,12.6378289 C10.5345486,13.1901137 10.0868333,13.6378289 9.53454859,13.6378289 L9.1697392,13.6378289 C8.61745445,13.6378289 8.1697392,13.1901137 8.1697392,12.6378289 L8.1697392,5.17859138 C8.1697392,4.62630663 8.61745445,4.17859138 9.1697392,4.17859138 Z" id="矩形备份-9" transform="translate(9.352144, 8.908210) rotate(-315.000000) translate(-9.352144, -8.908210) "></path>
                        <path d="M38.7298847,34.9210452 L39.0946941,34.9210452 C39.6469788,34.9210452 40.0946941,35.3687605 40.0946941,35.9210452 L40.0946941,43.3803626 C40.0946941,43.9326474 39.6469788,44.3803626 39.0946941,44.3803626 L38.7298847,44.3803626 C38.1776,44.3803626 37.7298847,43.9326474 37.7298847,43.3803626 L37.7298847,35.9210452 C37.7298847,35.3687605 38.1776,34.9210452 38.7298847,34.9210452 Z" id="矩形备份-11" transform="translate(38.912289, 39.650704) rotate(-315.000000) translate(-38.912289, -39.650704) "></path>
                    </g>
                    <g id="编组-18" transform="translate(0.727870, 0.106494)" fill-rule="nonzero">
                        <path d="M63.5519714,38.9171342 L63.5654023,23.5553177 C63.5657016,22.4510081 62.6714601,21.5549032 61.5671524,21.5529038 L0.747190387,21.479474 C-0.349190349,21.4781503 -1.24225778,22.3597627 -1.25508734,23.4560691 L-1.4346224,38.7976293 C-1.44754777,39.9021232 -0.562656665,40.8079705 0.541837208,40.8208959 C0.548620933,40.8209752 0.555405018,40.8210201 0.5621892,40.8210305 L61.5502251,40.914082 C62.6547913,40.9170697 63.551587,40.0230064 63.5532722,38.9184382 C63.5532729,38.9180039 63.5532734,38.9175697 63.5519714,38.9171342 Z" id="形状" stroke="#2C314D" stroke-width="2" transform="translate(31.065320, 31.196781) rotate(-136.000000) translate(-31.065320, -31.196781) "></path>
                        <path d="M57.9680772,16.6891321 C59.0173094,15.6126037 59.0173094,13.8959724 57.9680772,12.819444 L48.117962,2.96932889 C47.0414336,1.92009662 45.3248023,1.92009662 44.2482739,2.96932889 L39.8086864,7.40539858 L53.5284896,21.1252018 M20.1694933,54.4151123 L6.89646313,41.1420821 L6.89646313,41.2652086 L6.70297872,41.0717242 L4.62390083,56.6876745 L20.2398512,54.664883 L20.004152,54.4678807 L20.1694933,54.4151123 Z" id="形状" fill="#AFBBFF"></path>
                        <polygon id="路径" fill="#AFBBFF" points="8.09825449 38.8109615 38.0694422 9.4104804 51.7892454 23.1302836 21.8180577 52.5307647"></polygon>
                        <path d="M44.0721912,1.78571466 L5.1326763,40.6172556 L3.17776746,55.5042266 C3.03395364,56.5993938 3.80517799,57.6037865 4.90034527,57.7476003 C5.07203809,57.7701464 5.24593203,57.7702989 5.41766412,57.7480538 L20.0812337,55.8486277 L59.1632479,16.9036133 L59.2986173,16.7601944 C60.3366059,15.5861574 60.295354,13.7895923 59.164,12.657 L48.3144663,1.7910752 C47.1427915,0.620292429 45.2455696,0.61825537 44.0721912,1.78571466 Z M46.8999858,3.20502132 L57.7532952,14.0748209 L57.8384065,14.1684325 C58.1426334,14.5610391 58.1137377,15.127268 57.7527985,15.4856467 L19.151,53.951 L5.16074323,55.7646245 L7.027,41.552 L45.4836321,3.20269499 C45.8747922,2.81350903 46.5088563,2.81418983 46.8999858,3.20502132 Z" id="形状" fill="#2C314D"></path>
                    </g>
                </g>
            </g>
        </g>
    </g>
</svg>