<?xml version="1.0" standalone="no"?><!DOCTYPE svg PUBLIC "-//W3C//DTD SVG 1.1//EN" "http://www.w3.org/Graphics/SVG/1.1/DTD/svg11.dtd"><svg t="1619089483059" class="icon" viewBox="0 0 1024 1024" version="1.1" xmlns="http://www.w3.org/2000/svg" p-id="6947" xmlns:xlink="http://www.w3.org/1999/xlink" width="16" height="16"><defs><style type="text/css"></style></defs><path d="M96.9216 527.616a23.04 23.04 0 0 1-16.2816-39.3216l413.5936-413.5936a23.04 23.04 0 0 1 32.6144 0l413.5936 413.5936a23.04 23.04 0 1 1-32.5632 32.6144l-397.312-397.3632-397.3632 397.3632a22.8864 22.8864 0 0 1-16.2816 6.7072z" fill="#273a8a" p-id="6948"></path><path d="M513.4336 956.0576a23.0912 23.0912 0 0 1-23.04-23.04V117.4528a23.04 23.04 0 1 1 46.08 0v815.5648a23.04 23.04 0 0 1-23.04 23.04z" fill="#273a8a" p-id="6949"></path></svg>