<?xml version="1.0" encoding="UTF-8"?>
<svg width="190px" height="177px" viewBox="0 0 190 177" version="1.1" xmlns="http://www.w3.org/2000/svg" xmlns:xlink="http://www.w3.org/1999/xlink">
    <title>添加邮箱模版</title>
    <defs>
        <rect id="path-1" x="42.6548673" y="27.5221239" width="93.9823009" height="119.469027"></rect>
        <filter x="-29.8%" y="-21.8%" width="159.6%" height="146.9%" filterUnits="objectBoundingBox" id="filter-2">
            <feGaussianBlur stdDeviation="0" in="SourceGraphic"></feGaussianBlur>
        </filter>
        <filter x="-45.8%" y="-34.3%" width="191.5%" height="172.0%" filterUnits="objectBoundingBox" id="filter-3">
            <feOffset dx="0" dy="2" in="SourceAlpha" result="shadowOffsetOuter1"></feOffset>
            <feGaussianBlur stdDeviation="14" in="shadowOffsetOuter1" result="shadowBlurOuter1"></feGaussianBlur>
            <feColorMatrix values="0 0 0 0 0.840636322   0 0 0 0 0.833155813   0 0 0 0 0.833155813  0 0 0 0.5 0" type="matrix" in="shadowBlurOuter1"></feColorMatrix>
        </filter>
    </defs>
    <g id="后台" stroke="none" stroke-width="1" fill="none" fill-rule="evenodd">
        <g id="列表展示、产品分类-缺省状态" transform="translate(-337.000000, -1580.000000)">
            <g id="添加邮箱模版" transform="translate(337.000000, 1580.000000)">
                <path d="M33,0 C14.784,0 0,14.784 0,33 C0,51.216 14.784,66 33,66 C51.216,66 66,51.216 66,33 C66,14.784 51.216,0 33,0 Z" id="形状" fill="#A5C8CC" fill-rule="nonzero"></path>
                <g id="编组" transform="translate(17.000000, 17.000000)" fill="#FFFFFF" fill-rule="nonzero">
                    <path d="M2.06150314,0 L30.9345094,0 C32.0749154,0 32.9960126,0.82141131 32.9960126,1.83421943 L32.9960126,7.33687772 C32.9960126,8.34968584 32.070928,9.17109715 30.9345094,9.17109715 L2.06150314,9.17109715 C0.921097148,9.17109715 0,8.34968584 0,7.33687772 L0,1.83421943 C0,0.82141131 0.925084582,0 2.06150314,0 Z M1.949855,12.8275737 L7.79543258,12.8275737 C8.87203963,12.8275737 9.74528758,13.7287337 9.74528758,14.8452151 L9.74528758,30.9823586 C9.74528758,32.0948526 8.87203963,33 7.79543258,33 L1.949855,33 C0.873247946,33 0,32.09884 0,30.9823586 L0,14.8452151 C0,13.7327211 0.873247946,12.8275737 1.949855,12.8275737 Z M15.8580232,12.8275737 L31.0940068,12.8275737 C32.1466892,12.8275737 33,13.7287337 33,14.8452151 L33,30.9823586 C33,32.0948526 32.1466892,33 31.0940068,33 L15.8580232,33 C14.8053407,33 13.95203,32.09884 13.95203,30.9823586 L13.95203,14.8452151 C13.95203,13.7327211 14.8053407,12.8275737 15.8580232,12.8275737 Z" id="形状"></path>
                </g>
                <g id="矩形" opacity="0.62949673" filter="url(#filter-2)">
                    <use fill="black" fill-opacity="1" filter="url(#filter-3)" xlink:href="#path-1"></use>
                    <use fill="#FFFFFF" fill-rule="evenodd" xlink:href="#path-1"></use>
                </g>
                <g id="编组-2" transform="translate(179.218835, 22.807956) rotate(41.000000) translate(-179.218835, -22.807956) translate(171.718835, 15.307956)" fill="#FCCFA5">
                    <rect id="矩形" x="0.589487322" y="6.2068339" width="14.3362832" height="2.38938053"></rect>
                    <polygon id="矩形备份" transform="translate(7.757629, 7.401524) rotate(-270.000000) translate(-7.757629, -7.401524) " points="0.589487322 6.2068339 14.9257705 6.2068339 14.9257705 8.59621443 0.589487322 8.59621443"></polygon>
                </g>
                <rect id="矩形备份-2" fill="#C8D9DB" x="74.5132743" y="86.8584071" width="29.4690265" height="6.37168142"></rect>
                <rect id="矩形备份-3" fill="#C8D9DB" transform="translate(88.849558, 90.044248) rotate(-270.000000) translate(-88.849558, -90.044248) " x="74.5132743" y="86.8584071" width="28.6725664" height="6.37168142"></rect>
                <g id="编组" transform="translate(121.000000, 128.000000)" fill="#FCC690" fill-rule="nonzero">
                    <path d="M33.3333333,20 L48,37 L4,37 L18.5823755,20.0944444 L21.954023,23.4944444 C23.0498084,24.7222222 24.3984674,25.3833333 25.9157088,25.3833333 C27.4329502,25.3833333 28.8659004,24.7222222 29.8773946,23.4944444 L33.3333333,20 Z M0.160427807,2 C0.160427807,2.55737705 0.320855615,3.02185792 0.64171123,3.39344262 L15,18.3497268 L0.802139037,35.3497268 C0.64171123,35.5355191 0.561497326,35.7213115 0.481283422,36 C0.160427807,35.5355191 0,34.9781421 0,34.3278689 L0,3.02185792 C0,2.65027322 0.0802139037,2.27868852 0.160427807,2 Z M50.7580645,1 C50.8387097,1.37465565 50.9193548,1.65564738 50.9193548,2.03030303 L50.9193548,33.5950413 L51,33.5950413 C51,34.1570248 50.8387097,34.6253444 50.6774194,35 C50.5967742,34.8126722 50.516129,34.7190083 50.4354839,34.6253444 L36,17.3911846 L50.2741935,2.40495868 C50.5967742,2.03030303 50.7580645,1.46831956 50.7580645,1 Z M48.8210526,0 C49.2421053,0 49.6631579,0.0916666667 50,0.366666667 C49.5789474,0.275 49.0736842,0.366666667 48.6526316,0.733333333 L27.8526316,21.0833333 L27.7684211,21.175 C27.3473684,21.725 26.6736842,22 26,22 C25.3263158,22 24.7368421,21.725 24.2315789,21.175 L19.6842105,16.6833333 L3.34736842,0.733333333 C3.01052632,0.366666667 2.50526316,0.275 2,0.366666667 C2.42105263,0.0916666667 2.75789474,0 3.26315789,0 L48.8210526,0 Z" id="形状结合"></path>
                </g>
                <circle id="椭圆形" fill="#FFD7D7" cx="9.55752212" cy="123.893805" r="7.16814159"></circle>
                <circle id="椭圆形备份" stroke="#C8D9DB" stroke-width="3.18584071" cx="173.823009" cy="76.0442478" r="5.17699115"></circle>
            </g>
        </g>
    </g>
</svg>