<?xml version="1.0" encoding="UTF-8"?>
<svg width="28px" height="28px" viewBox="0 0 28 28" version="1.1" xmlns="http://www.w3.org/2000/svg" xmlns:xlink="http://www.w3.org/1999/xlink">
    <title>部分退款</title>
    <g id="后台" stroke="none" stroke-width="1" fill="none" fill-rule="evenodd">
        <g id="订单页不同状态" transform="translate(-303.000000, -225.000000)">
            <g id="部分退款" transform="translate(303.000000, 225.000000)">
                <circle id="椭圆形备份-10" stroke="#7483FB" stroke-width="6" opacity="0.153570131" cx="14" cy="14" r="11"></circle>
                <g id="编组" transform="translate(5.000000, 5.000000)" fill-rule="nonzero">
                    <path d="M9,0 C4.02944559,0 0,4.02944559 0,9 C0,13.9705544 4.02944559,18 9,18 C13.9705544,18 18,13.9705742 18,9 C18,4.02942576 13.9705544,0 9,0 Z" id="形状" fill="#B5BDFF"></path>
                    <path d="M4.5,4.5 C4.53458362,9.22620822 4.51010897,17.936367 4.5,22.5 C9.47055441,22.5 13.5,18.4705742 13.5,13.5 C13.5,8.52942576 9.47055441,4.5 4.5,4.5 Z" id="形状备份" fill="#7483FB" transform="translate(9.000000, 13.500000) rotate(-270.000000) translate(-9.000000, -13.500000) "></path>
                    <path d="M13.0393622,10.8688824 C13.0393622,11.1627671 12.7808462,11.4013275 12.4623275,11.4013275 L9.61637438,11.4013275 L9.61637438,14.2850586 C9.61637438,14.5789642 9.35788087,14.8174896 9.03933969,14.8174896 C8.7207985,14.8174896 8.46230499,14.5789642 8.46230499,14.2850586 L8.46230499,11.4013275 L5.61641946,11.4013275 C5.29787828,11.4013275 5.03936223,11.1628087 5.03936223,10.8688824 C5.03936223,10.574956 5.29787828,10.3364373 5.61641946,10.3364373 L8.46235007,10.3364373 L8.46235007,9 L5.61639692,9 C5.29790082,9 5.03936223,8.76148122 5.03936223,8.46755488 C5.03936223,8.17362853 5.29790082,7.93510975 5.61639692,7.93510975 L7.76298853,7.93510975 L5.23327744,5.85433084 C4.99552111,5.65838688 4.97473885,5.32188572 5.18594256,5.10250169 C5.39714628,4.88311766 5.76297726,4.86398291 6.00071105,5.05884535 L9.01513128,7.53793897 L11.7733571,4.97471486 C11.881173,4.87446462 12.0277773,4.81790384 12.1808393,4.81748955 C12.3339013,4.81710789 12.4808487,4.87290541 12.5892752,4.9725934 C12.6979209,5.07207799 12.7592183,5.20735361 12.7596496,5.34858794 C12.7600809,5.48982228 12.6996106,5.6254145 12.5915743,5.72546249 L10.2130418,7.93510975 L12.461178,7.93510975 C12.7796966,7.93510975 13.0382127,8.17367013 13.0382127,8.46755488 C13.0382127,8.76143963 12.7796966,9 12.461178,9 L9.61520228,9 L9.61520228,10.3364373 L12.462305,10.3364373 C12.7808462,10.3364373 13.0393622,10.5749976 13.0393622,10.8688824 Z" id="路径" fill="#FFFFFF"></path>
                </g>
            </g>
        </g>
    </g>
</svg>