<?xml version="1.0" encoding="UTF-8"?>
<svg width="28px" height="28px" viewBox="0 0 28 28" version="1.1" xmlns="http://www.w3.org/2000/svg" xmlns:xlink="http://www.w3.org/1999/xlink">
    <title>待处理</title>
    <g id="后台" stroke="none" stroke-width="1" fill="none" fill-rule="evenodd">
        <g id="订单页不同状态" transform="translate(-207.000000, -225.000000)">
            <g id="待处理" transform="translate(207.000000, 225.000000)">
                <circle id="椭圆形备份-7" stroke="#FF9D19" stroke-width="6" opacity="0.153570131" cx="14" cy="14" r="11"></circle>
                <g id="编组备份-26" transform="translate(5.000000, 5.000000)" fill="#FF9D19" fill-rule="nonzero">
                    <path d="M9,0 C4.19999999,0 0.149999994,3.90000001 0,8.69999999 L0,9 C0,13.95 4.05,18 9,18 C13.8,18 17.85,14.1 18,9.30000001 L18,9 C18,4.05 13.95,0 9,0 Z M12.75,11.625 L8.24999999,11.625 L8.24999999,4.87499999 C8.24999999,4.42499999 8.55,4.12500001 9,4.12500001 C9.45,4.12500001 9.74999999,4.42500001 9.74999999,4.87499999 L9.74999999,10.125 L12.75,10.125 C13.2,10.125 13.5,10.425 13.5,10.875 C13.5,11.325 13.2,11.625 12.75,11.625 L12.75,11.625 Z" id="形状"></path>
                </g>
            </g>
        </g>
    </g>
</svg>