<?xml version="1.0" encoding="UTF-8"?>
<svg width="28px" height="28px" viewBox="0 0 28 28" version="1.1" xmlns="http://www.w3.org/2000/svg" xmlns:xlink="http://www.w3.org/1999/xlink">
    <title>未发货</title>
    <g id="后台" stroke="none" stroke-width="1" fill="none" fill-rule="evenodd">
        <g id="订单页不同状态" transform="translate(-159.000000, -225.000000)">
            <g id="未发货" transform="translate(159.000000, 225.000000)">
                <circle id="椭圆形备份-6" stroke="#E36060" stroke-width="6" opacity="0.153570131" cx="14" cy="14" r="11"></circle>
                <g id="编组备份-27" transform="translate(5.000000, 5.000000)" fill="#E36060" fill-rule="nonzero">
                    <path d="M9,0 C4.01999999,0 0,4.01999999 0,9 C0,13.98 4.01999999,18 9,18 C13.98,18 18,13.98 18,9 C18,4.01999999 13.98,0 9,0 Z M7.79999999,4.37999999 C7.79999999,3.71999999 8.33999999,3.20999999 8.96999999,3.20999999 C9.63,3.20999999 10.14,3.74999999 10.14,4.37999999 L10.14,9.86999999 C10.14,10.17 10.02,10.47 9.81,10.71 C9.59999999,10.92 9.29999999,11.04 8.96999999,11.04 C8.66999999,11.04 8.37,10.92 8.13000001,10.71 C7.92,10.5 7.79999999,10.2 7.79999999,9.86999999 L7.79999999,4.37999999 Z M9,14.82 C8.49000001,14.82 8.04000001,14.58 7.79999999,14.16 C7.56,13.74 7.56,13.2 7.79999999,12.78 C8.03999999,12.36 8.51999999,12.09 9,12.12 C9.75000001,12.12 10.35,12.72 10.35,13.47 C10.35,14.19 9.75000001,14.82 9,14.82 L9,14.82 Z" id="形状"></path>
                </g>
            </g>
        </g>
    </g>
</svg>