<?xml version="1.0" encoding="UTF-8"?>
<svg width="28px" height="28px" viewBox="0 0 28 28" version="1.1" xmlns="http://www.w3.org/2000/svg" xmlns:xlink="http://www.w3.org/1999/xlink">
    <title>已发货</title>
    <g id="后台" stroke="none" stroke-width="1" fill="none" fill-rule="evenodd">
        <g id="订单页不同状态" transform="translate(-111.000000, -225.000000)">
            <g id="已发货" transform="translate(111.000000, 225.000000)">
                <circle id="椭圆形" stroke="#06847B" stroke-width="6" opacity="0.153570131" cx="14" cy="14" r="11"></circle>
                <g id="编组备份-24" transform="translate(5.000000, 5.000000)" fill="#06847B" fill-rule="nonzero">
                    <path d="M9,0 C4.04949833,0 0,4.04949833 0,9 C0,13.9505017 4.04949833,18 9,18 C13.9505017,18 18,13.9505017 18,9 C18,4.04949833 13.9505017,0 9,0 Z M14.0789298,6.16254181 L7.68361204,13.258194 L4.00535117,9.4916388 C3.6541806,9.14046823 3.6541806,8.61471572 4.00535117,8.26555184 C4.35652174,7.91638796 4.88227425,7.91438127 5.23143813,8.26555184 L7.68361204,10.7177258 L12.7645485,5.02474916 C13.1157191,4.6735786 13.6414716,4.6735786 13.9906355,4.93645485 C14.341806,5.28762542 14.341806,5.81337793 14.0789298,6.16254181 Z" id="形状"></path>
                </g>
            </g>
        </g>
    </g>
</svg>