<?xml version="1.0" encoding="UTF-8"?>
<svg width="28px" height="28px" viewBox="0 0 28 28" version="1.1" xmlns="http://www.w3.org/2000/svg" xmlns:xlink="http://www.w3.org/1999/xlink">
    <title>已删除</title>
    <g id="后台" stroke="none" stroke-width="1" fill="none" fill-rule="evenodd">
        <g id="订单页不同状态" transform="translate(-399.000000, -225.000000)">
            <g id="已删除" transform="translate(399.000000, 225.000000)">
                <circle id="椭圆形备份-8" stroke="#808080" stroke-width="6" opacity="0.153570131" cx="14" cy="14" r="11"></circle>
                <g id="编组" transform="translate(14.000000, 14.000000) scale(1, -1) translate(-14.000000, -14.000000) translate(5.000000, 5.000000)" fill="#9A9A9A" fill-rule="nonzero">
                    <path d="M9,0 C13.9708125,0 18,4.0291875 18,9 C18,13.9708125 13.9708125,18 9,18 C4.0291875,18 0,13.9708125 0,9 C0,4.0291875 4.0291875,0 9,0 Z M5.6829375,4.6603125 C5.39346199,4.42818432 4.9757087,4.45096205 4.7131875,4.7131875 L4.6603125,4.77225 C4.42818432,5.06172551 4.45096205,5.4794788 4.7131875,5.742 L7.970625,9 L4.712625,12.258 C4.52874487,12.4417797 4.45687789,12.7096979 4.52409567,12.9608326 C4.59131346,13.2119673 4.78740401,13.4081651 5.03850192,13.4755201 C5.28959984,13.5428752 5.55755737,13.4711547 5.7414375,13.287375 L9,10.02825 L12.258,13.28625 L12.3170625,13.339125 C12.606538,13.5712532 13.0242913,13.5484754 13.2868125,13.28625 L13.3396875,13.2271875 C13.5718157,12.937712 13.5490379,12.5199587 13.2868125,12.2574375 L10.029375,9 L13.287375,5.742 C13.571629,5.45790127 13.571755,4.99716032 13.2876562,4.71290626 C13.0035575,4.42865221 12.5428166,4.42852629 12.2585625,4.712625 L9,7.97175 L5.742,4.71375 L5.6829375,4.6603125 Z" id="形状"></path>
                </g>
            </g>
        </g>
    </g>
</svg>