<?xml version="1.0" encoding="UTF-8"?>
<svg width="28px" height="28px" viewBox="0 0 28 28" version="1.1" xmlns="http://www.w3.org/2000/svg" xmlns:xlink="http://www.w3.org/1999/xlink">
    <title>已退款</title>
    <g id="后台" stroke="none" stroke-width="1" fill="none" fill-rule="evenodd">
        <g id="订单页不同状态" transform="translate(-351.000000, -225.000000)">
            <g id="已退款" transform="translate(351.000000, 225.000000)">
                <circle id="椭圆形备份-10" stroke="#7483FB" stroke-width="6" opacity="0.153570131" cx="14" cy="14" r="11"></circle>
                <g id="编组" transform="translate(5.000000, 5.000000)" fill-rule="nonzero">
                    <path d="M9,0 C4.02944559,0 0,4.02944559 0,9 C0,13.9705544 4.02944559,18 9,18 C13.9705544,18 18,13.9705742 18,9 C18,4.02942576 13.9705544,0 9,0 Z" id="形状" fill="#7483FB"></path>
                    <path d="M4.5,4.5 C4.53458362,9.22620822 4.51010897,17.936367 4.5,22.5 C9.47055441,22.5 13.5,18.4705742 13.5,13.5 C13.5,8.52942576 9.47055441,4.5 4.5,4.5 Z" id="形状备份" fill="#7483FB" transform="translate(9.000000, 13.500000) rotate(-270.000000) translate(-9.000000, -13.500000) "></path>
                    <path d="M12.106599,9.72081218 C12.3867981,9.72081218 12.6142132,9.94824714 12.6142132,10.2284264 C12.6142132,10.5086056 12.3867981,10.7360406 12.106599,10.7360406 L9.60302982,10.7360406 L9.60302982,13.4852871 C9.60302982,13.7654862 9.37563452,13.9929013 9.09541561,13.9929013 C8.8151967,13.9929013 8.5878014,13.7654862 8.5878014,13.4852871 L8.5878014,10.7360406 L6.08429172,10.7360406 C5.80407281,10.7360406 5.57665768,10.5086453 5.57665768,10.2284264 C5.57665768,9.94820749 5.80407281,9.72081218 6.08429172,9.72081218 L8.58784105,9.72081218 L8.58784105,8.44670051 L6.08427189,8.44670051 C5.80409264,8.44670051 5.57665768,8.2193052 5.57665768,7.93908629 C5.57665768,7.65886739 5.80409264,7.43147208 6.08427189,7.43147208 L7.97261659,7.43147208 L5.74724381,5.4477316 C5.53809089,5.2609256 5.51980885,4.94011739 5.70560359,4.73096447 C5.89139832,4.52181155 6.2132178,4.50356916 6.42235089,4.68934407 L9.07411961,7.0528236 L11.5005155,4.60913706 C11.5953606,4.51356205 11.7243276,4.45963901 11.8589753,4.45925758 C11.9936231,4.45888018 12.1228919,4.51207555 12.2182741,4.60711453 C12.3138491,4.7019596 12.3677722,4.83092655 12.3681516,4.96557433 C12.368531,5.10022212 12.3153356,5.22949091 12.2202966,5.3248731 L10.1279148,7.43147208 L12.1055877,7.43147208 C12.3857868,7.43147208 12.6132019,7.65890704 12.6132019,7.93908629 C12.6132019,8.21926555 12.3857868,8.44670051 12.1055877,8.44670051 L9.60199873,8.44670051 L9.60199873,9.72081218 L12.1065792,9.72081218 L12.106599,9.72081218 Z" id="路径" fill="#FFFFFF"></path>
                </g>
            </g>
        </g>
    </g>
</svg>