<?xml version="1.0" encoding="UTF-8"?>
<svg width="28px" height="28px" viewBox="0 0 28 28" version="1.1" xmlns="http://www.w3.org/2000/svg" xmlns:xlink="http://www.w3.org/1999/xlink">
    <title>已作废</title>
    <g id="后台" stroke="none" stroke-width="1" fill="none" fill-rule="evenodd">
        <g id="订单页不同状态" transform="translate(-447.000000, -225.000000)">
            <g id="已作废" transform="translate(447.000000, 225.000000)">
                <circle id="椭圆形备份-9" stroke="#BCBCBC" stroke-width="6" opacity="0.153570131" cx="14" cy="14" r="11"></circle>
                <g id="编组" transform="translate(14.000000, 14.000000) scale(-1, 1) translate(-14.000000, -14.000000) translate(4.000000, 4.000000)" fill-rule="nonzero">
                    <path d="M10,0 C4.4771525,0 0,4.4771525 0,10 C0,15.5228475 4.4771525,20 10,20 C15.5228475,20 20,15.5228475 20,10 C20,4.4771525 15.5228475,0 10,0 Z" id="路径" fill="#BCBCBC"></path>
                    <path d="M10,2 C14.4,2 18,5.6 18,10 C18,14.4 14.4,18 10,18 C5.6,18 2,14.4 2,10 C2,5.6 5.6,2 10,2 Z M14.84,6.62999999 L6.62999999,14.84 L6.724,14.912 C7.51799999,15.478 8.482,15.812 9.53999999,15.888 L10,15.904 C13.2570409,15.895209 15.895209,13.2570409 15.904,10 C15.904,8.75999999 15.558,7.63199999 14.912,6.724 L14.84,6.62999999 Z M10,4.09599999 C6.74295913,4.10479098 4.10479098,6.74295913 4.09599999,10 C4.09599999,11.24 4.442,12.368 5.08799999,13.276 L5.158,13.368 L13.368,5.158 L13.276,5.08799999 C12.4454772,4.50885575 11.4707872,4.17103705 10.46,4.112 L10,4.09599999 Z" id="形状" fill="#FFFFFF"></path>
                </g>
            </g>
        </g>
    </g>
</svg>