<?xml version="1.0" standalone="no"?><!DOCTYPE svg PUBLIC "-//W3C//DTD SVG 1.1//EN" "http://www.w3.org/Graphics/SVG/1.1/DTD/svg11.dtd"><svg t="1617265218219" class="icon" viewBox="0 0 1024 1024" version="1.1" xmlns="http://www.w3.org/2000/svg" p-id="4128" xmlns:xlink="http://www.w3.org/1999/xlink" width="16" height="16"><defs><style type="text/css"></style></defs><path d="M530.176 4.48l443.648 239.104a33.92 33.92 0 0 1 18.176 29.568v478.336c0 12.16-7.04 23.424-18.176 29.44L530.176 1019.52a39.232 39.232 0 0 1-36.352 0L50.176 780.928a33.792 33.792 0 0 1-18.176-29.44V273.152c0-12.16 7.04-23.424 18.176-29.44L493.824 4.48a38.528 38.528 0 0 1 36.352 0zM216.768 359.04a34.112 34.112 0 0 0 12.928 47.168l246.4 138.816v274.432c0 19.136 15.808 34.56 35.456 34.56a36.8 36.8 0 0 0 25.28-10.304 33.088 33.088 0 0 0 10.112-24.32V545.408l247.296-139.328a34.112 34.112 0 0 0 13.056-47.168 34.624 34.624 0 0 0-21.376-16.128 36.544 36.544 0 0 0-27.072 3.456L512 485.248 265.152 346.176a36.672 36.672 0 0 0-27.072-3.328 34.752 34.752 0 0 0-21.376 16.192l0.064-0.064z" p-id="4129" fill="#0179FF"></path></svg>