<?xml version="1.0" standalone="no"?><!DOCTYPE svg PUBLIC "-//W3C//DTD SVG 1.1//EN" "http://www.w3.org/Graphics/SVG/1.1/DTD/svg11.dtd"><svg t="1617264511994" class="icon" viewBox="0 0 1092 1024" version="1.1" xmlns="http://www.w3.org/2000/svg" p-id="3708" xmlns:xlink="http://www.w3.org/1999/xlink" width="17.0625" height="16"><defs><style type="text/css"></style></defs><path d="M1037.282915 382.306613l-17.737154-4.093189a177.303318 177.303318 0 0 1-121.090185-211.20857l5.457586-16.713856c7.094862-23.19474-2.046595-55.121616-20.738826-70.948616 0 0-16.645637-14.189723-63.717314-41.409432-47.071677-27.01505-67.401185-34.51923-67.401185-34.51923-22.92186-8.391038-54.985177-0.409319-71.699033 17.396055L667.940796 34.04442a175.461383 175.461383 0 0 1-121.294844 48.299634c-47.071677 0-90.118385-18.419352-121.772383-48.708953L412.798661 20.809775C396.425903 3.004401 364.089707-4.977318 341.236067 3.41372c0 0-20.602386 7.50418-67.674064 34.51923-47.071677 27.424369-63.512655 41.614092-63.512655 41.614092-18.624012 15.690559-27.833688 47.344557-20.807045 70.743956l5.184706 16.918515a177.780857 177.780857 0 0 1-18.828671 129.958762 176.007142 176.007142 0 0 1-103.011932 81.249809l-17.054955 3.888529c-23.535839 5.389366-46.662359 29.334524-50.960208 53.416121 0 0-3.82031 21.421024-3.82031 75.860443 0 54.507638 3.82031 75.928662 3.82031 75.928662 4.297849 24.013377 27.219709 48.026755 50.960208 53.416121l16.713856 3.82031c41.886971 12.484227 79.544313 40.317915 103.080152 81.522688a177.371538 177.371538 0 0 1 18.896891 130.163421l-4.980047 16.509197c-7.026642 23.19474 2.183034 55.121616 20.807045 70.948615 0 0 16.645637 14.189723 63.717315 41.409433 47.071677 27.287929 67.401185 34.51923 67.401184 34.51923 22.92186 8.391038 55.053397 0.409319 71.699033-17.396055l11.80203-12.620667a176.416461 176.416461 0 0 1 121.977042-48.708953c47.276337 0 90.254825 18.692231 121.908823 48.913612l11.802029 12.620667c16.440977 17.805374 48.777173 25.787093 71.630813 17.396055 0 0 20.602386-7.50418 67.674064-34.51923 47.071677-27.287929 63.580874-41.409432 63.580875-41.409432 18.555792-15.690559 27.765468-47.549216 20.738826-70.948615l-5.184707-17.123176a176.68934 176.68934 0 0 1 18.896891-129.549443 176.68934 176.68934 0 0 1 103.080152-81.454468l16.713856-3.888529c23.535839-5.389366 46.662359-29.334524 50.960207-53.416121 0 0 3.82031-21.421024 3.820311-75.860443-0.204659-54.712298-4.093189-76.133322-4.09319-76.133322-4.229629-23.876938-27.151489-48.026755-50.891987-53.416121zM410.206307 511.651397a136.439645 136.439645 0 1 1 272.74285 0 136.439645 136.439645 0 0 1-272.74285 0z" p-id="3709" fill="#0179FF"></path></svg>