<?xml version="1.0" standalone="no"?><!DOCTYPE svg PUBLIC "-//W3C//DTD SVG 1.1//EN" "http://www.w3.org/Graphics/SVG/1.1/DTD/svg11.dtd"><svg t="1617264213943" class="icon" viewBox="0 0 1024 1024" version="1.1" xmlns="http://www.w3.org/2000/svg" p-id="2728" width="16" height="16" xmlns:xlink="http://www.w3.org/1999/xlink"><defs><style type="text/css"></style></defs><path d="M951.115294 993.882353H72.884706c-23.612235 0-42.767059-18.070588-42.767059-40.478118v-44.212706c0-147.757176 126.735059-267.565176 283.105882-267.565176h397.552942c156.310588 0 283.105882 119.808 283.105882 267.565176v44.212706c0 22.347294-19.154824 40.478118-42.767059 40.478118zM512 30.117647C345.690353 30.117647 210.823529 157.575529 210.823529 314.729412c0 157.214118 134.866824 284.672 301.176471 284.672s301.176471-127.457882 301.176471-284.672S678.309647 30.117647 512 30.117647zM660.961882 421.647059c-23.792941 24.395294-48.609882 43.068235-73.788235 55.41647A169.863529 169.863529 0 0 1 512 495.375059a169.863529 169.863529 0 0 1-75.173647-18.31153A271.841882 271.841882 0 0 1 363.038118 421.647059a35.056941 35.056941 0 0 1-8.432942-35.538824 37.827765 37.827765 0 0 1 28.370824-24.69647 39.755294 39.755294 0 0 1 36.743529 10.842353c33.370353 34.334118 62.644706 50.296471 92.280471 50.29647s58.970353-15.962353 92.280471-50.236235a39.574588 39.574588 0 0 1 36.743529-10.842353 37.827765 37.827765 0 0 1 28.310588 24.636235 35.056941 35.056941 0 0 1-8.432941 35.538824z" p-id="2729" fill="#3D3D3D"></path></svg>