<?xml version="1.0" standalone="no"?><!DOCTYPE svg PUBLIC "-//W3C//DTD SVG 1.1//EN" "http://www.w3.org/Graphics/SVG/1.1/DTD/svg11.dtd"><svg t="1617264537730" class="icon" viewBox="0 0 1025 1024" version="1.1" xmlns="http://www.w3.org/2000/svg" p-id="3916" xmlns:xlink="http://www.w3.org/1999/xlink" width="16.015625" height="16"><defs><style type="text/css"></style></defs><path d="M916.460408 0.13046L584.102039 16.082869a177.656332 177.656332 0 0 0-116.951306 51.721475L29.301692 505.455219a99.975036 99.975036 0 0 0 0 141.424877L377.414304 994.728485a100.20623 100.20623 0 0 0 141.556988 0l133.663353-133.531242 304.218716-303.85541a177.326054 177.326054 0 0 0 51.754503-116.852222L1024.75844 108.329408A103.277812 103.277812 0 0 0 916.460408 0.13046zM760.206066 436.096918a121.443081 121.443081 0 1 1 0-171.744362 121.542164 121.542164 0 0 1 0 171.744362z m0 0" p-id="3917" fill="#3D3D3D"></path></svg>