<?xml version="1.0" standalone="no"?><!DOCTYPE svg PUBLIC "-//W3C//DTD SVG 1.1//EN" "http://www.w3.org/Graphics/SVG/1.1/DTD/svg11.dtd"><svg t="1617086197251" class="icon" viewBox="0 0 1024 1024" version="1.1" xmlns="http://www.w3.org/2000/svg" p-id="3578" xmlns:xlink="http://www.w3.org/1999/xlink" width="16" height="16"><defs><style type="text/css"></style></defs><path d="M569.984 21.312a82.176 82.176 0 0 0-110.4 0L13.312 444.992a41.152 41.152 0 0 0 55.104 61.12l7.104-6.72v442.24A82.304 82.304 0 0 0 157.888 1024H397.44v-247.808a57.984 57.984 0 0 1 57.984-58.048H568.32a57.984 57.984 0 0 1 57.984 58.048V1024h245.312a82.368 82.368 0 0 0 82.368-82.432V504.768c18.304 16.576 44.224 15.36 59.52-1.664a41.152 41.152 0 0 0-3.008-58.112L569.984 21.312z" p-id="3579" fill="#0179FF"></path></svg>