<?xml version="1.0" standalone="no"?><!DOCTYPE svg PUBLIC "-//W3C//DTD SVG 1.1//EN" "http://www.w3.org/Graphics/SVG/1.1/DTD/svg11.dtd"><svg t="1618404055171" class="icon" viewBox="0 0 1024 1024" version="1.1" xmlns="http://www.w3.org/2000/svg" p-id="4486" xmlns:xlink="http://www.w3.org/1999/xlink" width="48" height="48"><defs><style type="text/css"></style></defs><path d="M192 0h640a128 128 0 0 1 128 128v843.648c0 39.744-44.864 65.344-79.616 45.44l-351.68-169.024a54.4 54.4 0 0 0-55.04 0l-328.576 164.8c-36.16 21.312-81.024-4.288-81.024-44.032V128A128 128 0 0 1 192 0z m134.016 387.84l72.384 69.568c2.88 2.816 4.352 7.104 4.352 12.8l-17.344 97.984a25.472 25.472 0 0 0 10.112 24.192c7.232 5.632 18.816 5.632 27.52 1.408l89.728-46.912a20.48 20.48 0 0 1 12.992 0l89.728 46.912c4.352 1.408 7.296 2.816 11.584 2.816 5.76 0 10.176-1.408 14.528-4.224a26.816 26.816 0 0 0 10.112-24.192L634.24 470.208c-1.408-4.288 0-8.512 4.352-12.8L711.04 387.84c7.232-7.04 10.112-17.024 5.76-25.6a27.2 27.2 0 0 0-20.224-16.96l-99.84-14.208a10.88 10.88 0 0 1-10.176-7.104l-44.8-89.536a25.856 25.856 0 0 0-23.232-14.208 25.856 25.856 0 0 0-23.168 14.208l-44.8 89.536a10.88 10.88 0 0 1-10.176 7.04l-99.84 14.272a25.024 25.024 0 0 0-20.288 17.024c-2.88 9.92-1.472 19.84 5.76 25.6z" p-id="4487" fill="#0179ff"></path></svg>