<?xml version="1.0" standalone="no"?><!DOCTYPE svg PUBLIC "-//W3C//DTD SVG 1.1//EN" "http://www.w3.org/Graphics/SVG/1.1/DTD/svg11.dtd"><svg t="1617086116337" class="icon" viewBox="0 0 1024 1024" version="1.1" xmlns="http://www.w3.org/2000/svg" p-id="3214" xmlns:xlink="http://www.w3.org/1999/xlink" width="16" height="16"><defs><style type="text/css"></style></defs><path d="M712 59.2c-1.856 45.248-27.776 98.112-80.896 98.112H398.976c-60.992 0-85.12-52.864-87.04-98.112H188.416C119.936 59.2 64 115.84 64 184.96v713.152C64 967.36 119.936 1024 188.352 1024h647.296C904.064 1024 960 967.36 960 898.176V184.96c0-69.248-55.936-125.824-124.352-125.824h-123.648zM424.192 0H602.24a60.288 60.288 0 0 1 0 120.576H424.192a60.288 60.288 0 0 1 0-120.576z m321.024 763.968H278.784a31.232 31.232 0 0 1-31.04-31.424c0-17.408 13.888-31.488 31.04-31.488h466.432c17.152 0 31.04 14.08 31.04 31.488a31.232 31.232 0 0 1-31.04 31.424z m0-191.744H278.784a31.232 31.232 0 0 1-31.04-31.488c0-17.408 13.888-31.424 31.04-31.424h466.432c17.152 0 31.04 14.08 31.04 31.424a31.232 31.232 0 0 1-31.04 31.488z m0-191.808H278.784a31.232 31.232 0 0 1-31.04-31.424c0-17.408 13.888-31.488 31.04-31.488h466.432c17.152 0 31.04 14.08 31.04 31.488a31.232 31.232 0 0 1-31.04 31.424z" p-id="3215" fill="#3D3D3D"></path></svg>