<?xml version="1.0" standalone="no"?><!DOCTYPE svg PUBLIC "-//W3C//DTD SVG 1.1//EN" "http://www.w3.org/Graphics/SVG/1.1/DTD/svg11.dtd"><svg t="1617086042068" class="icon" viewBox="0 0 1092 1024" version="1.1" xmlns="http://www.w3.org/2000/svg" p-id="3052" xmlns:xlink="http://www.w3.org/1999/xlink" width="16" height="16"><defs><style type="text/css"></style></defs><path d="M811.963733 34.133333H280.9856a136.533333 136.533333 0 0 0-134.826667 115.0976l-108.612266 682.666667A136.533333 136.533333 0 0 0 172.373333 989.866667h747.656534a136.533333 136.533333 0 0 0 134.894933-157.9008l-108.066133-682.666667A136.533333 136.533333 0 0 0 811.963733 34.133333z m-21.845333 295.3216c-19.8656 118.101333-121.378133 205.482667-238.7968 205.482667-117.828267 0-219.272533-87.790933-239.2064-205.482667a55.978667 55.978667 0 0 1-34.6112-51.882666 55.296 55.296 0 0 1 54.8864-55.842134 55.569067 55.569067 0 0 1 49.834667 79.121067 46.148267 46.148267 0 0 1-11.605334 20.957867C387.754667 411.648 462.165333 474.658133 550.912 474.658133s163.976533-63.829333 180.292267-152.439466a50.653867 50.653867 0 0 1-11.537067-19.797334 55.296 55.296 0 0 1 48.9472-80.213333c30.242133 0 54.954667 25.122133 54.954667 55.7056a53.0432 53.0432 0 0 1-33.450667 51.541333z" p-id="3053" fill="#3D3D3D"></path></svg>