<?xml version="1.0" standalone="no"?><!DOCTYPE svg PUBLIC "-//W3C//DTD SVG 1.1//EN" "http://www.w3.org/Graphics/SVG/1.1/DTD/svg11.dtd"><svg t="1617090590479" class="icon" viewBox="0 0 1170 1024" version="1.1" xmlns="http://www.w3.org/2000/svg" p-id="3910" xmlns:xlink="http://www.w3.org/1999/xlink" width="16" height="16"><defs><style type="text/css"></style></defs><path d="M1153.635987 237.921885l-92.858265-171.824348C1038.988933 25.59086 994.826419 0 946.642485 0H223.298536c-48.257051 0-92.346448 25.59086-114.281471 66.170653L16.231917 237.995002C-35.242271 349.498036 41.018493 481.254409 169.338379 491.052053c71.727526 5.629989 141.115316-25.663977 181.475759-81.890753a42.334595 42.334595 0 0 1 34.511103-17.328669c13.892181 0 26.760728 6.50739 34.511103 17.328669A202.752731 202.752731 0 0 0 584.933952 491.78322c68.656623 0 129.197287-32.756301 165.097608-82.62192a42.334595 42.334595 0 0 1 34.511103-17.255552c13.892181 0 26.760728 6.50739 34.511104 17.328668 40.360443 56.226776 109.748233 87.520743 181.475758 81.890754 128.319886-9.797644 204.58065-141.627133 153.106462-253.203285z m-134.534809 330.707033a293.783077 293.783077 0 0 1-208.16337-53.813923 44.747447 44.747447 0 0 0-52.790289 0A293.929311 293.929311 0 0 1 584.933952 570.749304c-62.734166 0-123.567297-19.668404-173.286683-55.934309a44.747447 44.747447 0 0 0-52.644056 0 295.172296 295.172296 0 0 1-207.797786 53.88704 43.138879 43.138879 0 0 0-32.683185 9.505177 38.386291 38.386291 0 0 0-14.038415 29.539164v335.898322c0 44.162513 36.850839 79.989718 82.402571 79.989718h796.095109c45.551732 0 82.475687-35.827205 82.475687-79.989718V607.819493c0-23.543592-21.715673-42.188361-46.429133-39.190575z m-173.432917 298.096966H324.199643c-23.031774 0-41.822778-17.767369-41.822778-39.483042 0-21.715673 18.791003-39.483042 41.822778-39.483042h521.468618c22.958658 0 41.749661 17.767369 41.749661 39.483042 0 21.715673-18.791003 39.483042-41.749661 39.483042z" p-id="3911" fill="#3D3D3D"></path></svg>