<?xml version="1.0" standalone="no"?><!DOCTYPE svg PUBLIC "-//W3C//DTD SVG 1.1//EN" "http://www.w3.org/Graphics/SVG/1.1/DTD/svg11.dtd"><svg t="1632807327615" class="icon" viewBox="0 0 1024 1024" version="1.1" xmlns="http://www.w3.org/2000/svg" p-id="11441" xmlns:xlink="http://www.w3.org/1999/xlink" width="32" height="32"><defs><style type="text/css"></style></defs><path d="M221.866667 273.066667c8.533333-128 132.266667-230.4 277.333333-230.4h21.333333c149.333333 0 273.066667 102.4 277.333334 234.666666h119.466666c21.333333 0 34.133333 12.8 34.133334 34.133334l29.866666 550.4v4.266666c-4.266667 68.266667-64 119.466667-132.266666 119.466667H174.933333c-68.266667 0-123.733333-46.933333-132.266666-115.2v-4.266667l21.333333-554.666666c0-17.066667 17.066667-34.133333 34.133333-34.133334l123.733334-4.266666z m0 68.266666h-85.333334l-21.333333 520.533334c4.266667 29.866667 29.866667 55.466667 59.733333 55.466666h674.133334c29.866667 0 55.466667-21.333333 59.733333-51.2l-21.333333-520.533333h-85.333334v98.133333c0 21.333333-17.066667 34.133333-34.133333 34.133334s-34.133333-12.8-34.133333-29.866667V290.133333c0-102.4-93.866667-179.2-204.8-179.2h-21.333334c-110.933333 0-204.8 81.066667-204.8 179.2v149.333334c0 17.066667-12.8 34.133333-34.133333 34.133333h-4.266667c-17.066667 0-34.133333-12.8-34.133333-29.866667v-4.266666L221.866667 341.333333z m512 0H302.933333V273.066667h430.933334V341.333333z" p-id="11442" fill="#ffffff"></path></svg>