<svg t="1630993815373" class="icon" viewBox="0 0 1024 1024" version="1.1" xmlns="http://www.w3.org/2000/svg" p-id="13725" width="200" height="200"><path d="M762.9 723.9H246.6c-33.1 0-60-26.9-60-60V371.2c0-33.1 26.9-60 60-60h516.3c33.1 0 60 26.9 60 60v292.7c0 33.1-26.9 60-60 60zM246.6 351.2c-11 0-20 9-20 20v292.7c0 11 9 20 20 20h516.3c11 0 20-9 20-20V371.2c0-11-9-20-20-20H246.6z" fill="#bfbfbf" p-id="13726"></path><path d="M803 432.6H206.6v-63.8c0-22.1 17.9-40 40-40H763c22.1 0 40 17.9 40 40v63.8z" fill="#bfbfbf" p-id="13727"></path><path d="M823 452.6H186.6v-83.8c0-33.1 26.9-60 60-60H763c33.1 0 60 26.9 60 60v83.8z m-596.4-40H783v-43.8c0-11-9-20-20-20H246.6c-11 0-20 9-20 20v43.8zM539.8 552.6H256c-11 0-20-9-20-20s9-20 20-20h283.8c11 0 20 9 20 20s-9 20-20 20zM715.6 594h-97c-11 0-20-9-20-20s9-20 20-20h97c11 0 20 9 20 20s-8.9 20-20 20z" fill="#bfbfbf" p-id="13728"></path><path d="M618.6 638h95" fill="#bfbfbf" p-id="13729"></path><path d="M713.6 658h-95c-11 0-20-9-20-20s9-20 20-20h95c11 0 20 9 20 20s-8.9 20-20 20z" fill="#bfbfbf" p-id="13730"></path></svg>