<?xml version="1.0" encoding="UTF-8"?>
<svg width="190px" height="177px" viewBox="0 0 190 177" version="1.1" xmlns="http://www.w3.org/2000/svg" xmlns:xlink="http://www.w3.org/1999/xlink">
    <title>添加和管理商品</title>
    <defs>
        <rect id="path-1" x="42.6548673" y="27.5221239" width="93.9823009" height="119.469027"></rect>
        <filter x="-29.8%" y="-21.8%" width="159.6%" height="146.9%" filterUnits="objectBoundingBox" id="filter-2">
            <feGaussianBlur stdDeviation="0" in="SourceGraphic"></feGaussianBlur>
        </filter>
        <filter x="-45.8%" y="-34.3%" width="191.5%" height="172.0%" filterUnits="objectBoundingBox" id="filter-3">
            <feOffset dx="0" dy="2" in="SourceAlpha" result="shadowOffsetOuter1"></feOffset>
            <feGaussianBlur stdDeviation="14" in="shadowOffsetOuter1" result="shadowBlurOuter1"></feGaussianBlur>
            <feColorMatrix values="0 0 0 0 0.840636322   0 0 0 0 0.833155813   0 0 0 0 0.833155813  0 0 0 0.5 0" type="matrix" in="shadowBlurOuter1"></feColorMatrix>
        </filter>
    </defs>
    <g id="后台" stroke="none" stroke-width="1" fill="none" fill-rule="evenodd">
        <g id="列表展示、产品分类-缺省状态" transform="translate(-337.000000, -193.000000)">
            <g id="添加和管理商品" transform="translate(337.000000, 193.000000)">
                <g id="编组" transform="translate(123.539823, 116.725664)" fill-rule="nonzero">
                    <path d="M25.4890413,7.56626133 C25.4890414,10.626739 27.3324703,13.3858187 30.1596401,14.5567963 C32.9868098,15.7277739 36.2408772,15.0800121 38.4042994,12.9155964 C40.5677216,10.7511807 41.214388,7.49641717 40.0427241,4.6691735 C38.8710602,1.84192982 36.1118384,-0.00093642691 33.0518291,0 C28.8737378,0 25.4867257,3.38753078 25.4867257,7.56626133 L25.4890413,7.56626133 Z" id="路径" fill="#FFE3CA"></path>
                    <path d="M12.7433628,7.56637168 C12.7433628,11.7451634 16.1309428,15.1327434 20.3097345,15.1327434 C24.4885262,15.1327434 27.8761062,11.7451634 27.8761062,7.56637171 C27.8761062,3.38758003 24.4885262,0 20.3097346,0 C18.303008,0 16.3784718,0.797168995 14.9595018,2.21613894 C13.5405319,3.63510888 12.7433628,5.55964514 12.7433628,7.56637168 Z" id="路径" fill="#FFE3CA"></path>
                    <path d="M42.9385302,47.7876106 L12.0170078,47.7876106 C8.46362311,47.7771741 5.58561893,44.9467339 5.57522124,41.452075 L5.57522124,19.9115044 L49.380531,19.9115044 L49.380531,41.452075 C49.3943301,43.1364948 48.7201447,44.7559293 47.5090244,45.9470339 C46.297904,47.1381384 44.6512557,47.8011817 42.9385302,47.7876106 Z" id="路径" fill="#FCC690"></path>
                    <path d="M47.7120956,21.5044248 L6.44719641,21.5044248 C2.88650815,21.5044248 0,18.8300195 0,15.5309735 C0,12.2319274 2.88650815,9.55752212 6.44719641,9.55752212 L47.7120956,9.55752212 C51.2727839,9.55752212 54.159292,12.2319274 54.159292,15.5309735 C54.159292,18.8300195 51.2727839,21.5044248 47.7120956,21.5044248 L47.7120956,21.5044248 Z" id="路径" fill="#FFB272"></path>
                    <path d="M27.4766937,23.4385285 C23.8727027,23.4385285 20.7818784,21.1225902 19.6231149,18.0682367 C19.3653491,17.3365344 18.5920518,16.7256637 17.8211193,16.7256637 C16.5346554,16.7256637 15.6336576,17.9429299 16.0191239,19.1624336 C17.6123167,23.8787942 22.2449786,27.079646 27.4778761,27.079646 C32.7107736,27.079646 37.3434355,23.8787942 38.9366284,19.1624336 C39.3220946,17.9451675 38.4210969,16.7256637 37.1346329,16.7256637 C36.2336351,16.7256637 35.5904032,17.2134652 35.3326374,18.0682367 C34.1738738,21.1136397 31.075955,23.4385285 27.4790585,23.4385285 L27.4766937,23.4385285 Z" id="路径" fill="#FFFFFF"></path>
                </g>
                <g id="矩形" opacity="0.62949673" filter="url(#filter-2)">
                    <use fill="black" fill-opacity="1" filter="url(#filter-3)" xlink:href="#path-1"></use>
                    <use fill="#FFFFFF" fill-rule="evenodd" xlink:href="#path-1"></use>
                </g>
                <g id="编组-2" transform="translate(179.218835, 22.807956) rotate(41.000000) translate(-179.218835, -22.807956) translate(171.718835, 15.307956)" fill="#FFD7D7">
                    <rect id="矩形" x="0.589487322" y="6.2068339" width="14.3362832" height="2.38938053"></rect>
                    <polygon id="矩形备份" transform="translate(7.757629, 7.401524) rotate(-270.000000) translate(-7.757629, -7.401524) " points="0.589487322 6.2068339 14.9257705 6.2068339 14.9257705 8.59621443 0.589487322 8.59621443"></polygon>
                </g>
                <rect id="矩形备份-2" fill="#C8D9DB" x="74.5132743" y="86.8584071" width="29.4690265" height="6.37168142"></rect>
                <rect id="矩形备份-3" fill="#C8D9DB" transform="translate(88.849558, 90.044248) rotate(-270.000000) translate(-88.849558, -90.044248) " x="74.5132743" y="86.8584071" width="28.6725664" height="6.37168142"></rect>
                <g id="编组" fill="#A5C8CC" fill-rule="nonzero">
                    <path d="M0,32.6548673 C-2.2086242e-15,14.6200821 14.6200821,3.31293629e-15 32.6548673,0 C50.6896525,-3.31293629e-15 65.3097345,14.6200821 65.3097345,32.6548673 C65.3097345,50.6896525 50.6896525,65.3097345 32.6548673,65.3097345 C14.6200821,65.3097345 2.2086242e-15,50.6896525 0,32.6548673 Z M20.5163274,53.5376549 L20.5163274,20.9716814 C20.4614505,20.8759142 20.3923267,20.7890506 20.3113274,20.7140708 C20.1182004,20.5230933 19.895138,20.3649886 19.6509734,20.2460177 C19.2153501,20.0291535 18.6866943,20.1615098 18.404646,20.5580531 C18.0067352,21.0699108 17.7524876,21.678602 17.6680973,22.3214159 C17.634233,22.5633038 17.4903097,23.3579056 17.2363275,24.7052212 C16.9823452,26.0525368 16.6854277,27.6604867 16.3455752,29.5290708 C16.0057227,31.3964454 15.6428908,33.4016961 15.2570797,35.544823 C14.8712685,37.6879499 14.4981564,39.6925959 14.1377434,41.558761 C13.7821682,43.4261357 13.4852507,45.0165486 13.2469911,46.33 C13.0087315,47.6434513 12.8563421,48.4041888 12.789823,48.6122124 C12.6176428,49.3770777 12.6978397,50.1771377 13.0184071,50.8926106 C13.4097408,51.6920461 14.045044,52.3464084 14.8325664,52.7611947 C15.3078761,53.0369469 15.8841741,53.3737758 16.5614602,53.7716814 C17.2387463,54.169587 17.9166371,54.5584218 18.5951328,54.9381858 C19.3752213,55.3880973 20.1891741,55.8374041 21.0369912,56.2861062 C20.9132196,56.0968887 20.826993,55.8856334 20.7830089,55.6638496 C20.6979738,55.3848002 20.6372748,55.0989083 20.6015929,54.8093806 C20.544114,54.3879215 20.5156253,53.9630148 20.5163274,53.5376549 L20.5163274,53.5376549 Z M46.3463274,16.5650885 C46.1607638,16.3089292 45.9570546,16.0664183 45.7367699,15.8394248 C45.4278508,15.5373268 45.0562287,15.3069211 44.6482743,15.1645575 C44.2544377,15.0023108 43.8289052,14.9315955 43.403761,14.9577433 C42.8729484,15.0378599 42.3382067,15.0893356 41.8018584,15.1119469 L38.1735398,15.3713717 C38.110158,14.7864675 38.0077318,14.2064566 37.8669469,13.6352212 C37.6879411,12.8670131 37.3878795,12.1321684 36.9780088,11.4582301 C36.534179,10.7299435 35.9243394,10.1169956 35.1983186,9.66946903 C34.2964704,9.15685479 33.2505157,8.95659272 32.2230973,9.09982299 C31.2985894,9.1492457 30.4191701,9.51497653 29.7322566,10.135708 C29.1335855,10.7080703 28.6576854,11.3963044 28.3335398,12.1584956 C28.0172945,12.8933016 27.8118701,13.6709793 27.7239823,14.4661062 C27.6499371,15.0772972 27.6075501,15.6919085 27.5969912,16.3074779 L24.3423894,16.5669027 C23.460708,16.6358407 22.9164602,16.6872419 22.709646,16.7211062 C22.4293487,16.7600363 22.1604302,16.8577124 21.9204867,17.0077434 C21.689235,17.1446116 21.4759398,17.3097631 21.285531,17.4993805 C21.0559688,17.6990289 20.851307,17.9256187 20.6759734,18.1742478 L22.9128318,19.2101327 L23.5223894,19.0033186 C23.709824,18.9301621 23.9075271,18.8867042 24.1083628,18.8745133 C24.3044376,18.8599276 24.4994907,18.8338801 24.6925221,18.7965044 C24.8291888,18.7965044 25.2615634,18.7620354 25.989646,18.6930974 C26.7177286,18.6241593 27.6157375,18.5546165 28.6836726,18.484469 C29.7528171,18.415531 30.9392773,18.329056 32.2430531,18.2250443 L36.1852212,17.914823 C39.3031564,17.6729351 42.810531,17.3965782 46.7073452,17.0857522 C46.6163614,16.8935808 46.4943948,16.7176793 46.3463274,16.5650885 L46.3463274,16.5650885 Z M52.4999558,49.0276549 C52.4322271,48.7494838 52.2883038,47.9192035 52.0681858,46.5368142 C51.8480678,45.1544248 51.5850148,43.4950737 51.2790266,41.558761 C50.9742478,39.6236578 50.6525369,37.5410029 50.3138938,35.3107965 C49.9752507,33.08059 49.6523304,30.9979351 49.3451328,29.0628319 C49.040354,27.1277286 48.7863717,25.4683776 48.5831858,24.0847787 C48.38,22.7011799 48.259056,21.8708997 48.220354,21.593938 C48.1351719,20.8519984 47.7488124,20.1776732 47.1518142,19.7289823 C46.458362,19.2845824 45.6296936,19.1007196 44.8133629,19.2101327 C44.541239,19.2452065 44.1342626,19.2881416 43.5924337,19.3389381 C43.0481859,19.3915487 42.4223009,19.4423451 41.7111505,19.4949558 C41,19.5475664 40.2271681,19.6074337 39.3962832,19.6763717 L36.9308407,19.8831858 C34.9957375,20.021062 32.8792183,20.1940118 30.5812832,20.4020354 L31.0402655,27.765708 L31.4466372,27.765708 C31.5824824,27.7654384 31.7181872,27.7569568 31.8530089,27.7403097 C31.9877185,27.7222948 32.1234717,27.7132042 32.2593805,27.7130973 C32.4716377,27.6553716 32.6970843,27.7392757 32.8199557,27.9217256 C32.9539102,28.1991253 33.0397915,28.4972561 33.0739381,28.8034071 C33.1084071,29.0446902 33.1410619,29.4601327 33.175531,30.0479203 C33.2100001,30.6357079 33.2517257,31.2579646 33.3025221,31.9146903 C33.3533186,32.571416 33.4041151,33.2027434 33.4549115,33.8068584 C33.5057079,34.4109734 33.5311062,34.8354867 33.5311062,35.0767699 C33.5905737,35.4588007 33.4995262,35.8490043 33.2771239,36.1652655 C32.8889793,36.4783532 32.4023377,36.643567 31.9038053,36.6315044 C31.5409734,36.6659734 31.2253097,36.6913717 30.9967257,36.7095133 L30.3599558,36.7603097 C30.1730973,36.7766372 29.9789823,36.7875222 29.7757965,36.7875221 L29.064646,36.7875221 C28.6866188,36.8157322 28.3066843,36.7713962 27.9453097,36.6569026 C27.695961,36.3427567 27.5858538,35.940341 27.640531,35.5430089 C27.606062,35.1965044 27.5715929,34.7393363 27.5389381,34.1678761 C27.5062832,33.596416 27.4790708,33.0104425 27.4627434,32.4045133 C27.4464159,31.7985841 27.4192035,31.2216814 27.3865487,30.6683628 C27.3538938,30.1150442 27.3176106,29.6832743 27.2849557,29.371239 C27.2159043,29.0600133 27.2899165,28.7342215 27.4866569,28.4833775 C27.6833973,28.2325335 27.9821701,28.0830244 28.3008849,28.0759292 C28.4537091,28.0770033 28.6064355,28.0679125 28.7580531,28.0487168 C28.8597212,28.0347581 28.9620668,28.0262798 29.064646,28.0233186 C29.136566,28.0317395 29.2090364,28.0129749 29.2678318,27.9707079 L28.8088496,20.5562389 L27.4373451,20.659646 L26.2926106,20.7630531 C25.9633257,20.794583 25.6328519,20.8121357 25.3020797,20.8156637 C24.6744218,20.8221734 24.0918779,21.1430835 23.7509735,21.6701328 C23.3652474,22.3009345 23.1758036,23.0321875 23.2067256,23.7709292 L23.2067256,55.6112389 C23.1529432,56.3904395 23.4860503,57.1462058 24.0974779,57.6322124 C24.9397899,58.1156344 25.950277,58.2102642 26.8676991,57.8916372 C27.409528,57.7876254 28.3335398,57.5977434 29.6397345,57.3219911 L34.0626549,56.3876991 C35.7087021,56.0430088 37.4291298,55.6717109 39.223938,55.2738053 L44.2836283,54.1580973 C45.8558997,53.8134071 47.2122862,53.5195133 48.3527876,53.2764159 C49.4932891,53.0333186 50.2304425,52.8609735 50.5642478,52.7593805 C51.3720572,52.6746652 52.0763692,52.1727655 52.4201327,51.4368584 C52.6470137,50.652978 52.6744522,49.8248339 52.4999558,49.0276549 L52.4999558,49.0276549 Z M29.668761,16.0988496 C29.6770256,15.6389393 29.7109426,15.1798484 29.770354,14.7237168 C29.8391929,14.1479296 29.9755892,13.5822505 30.1767257,13.0383628 C30.3679099,12.5046552 30.6717037,12.0183376 31.0674779,11.6124336 C31.4846419,11.2017714 32.0346624,10.953458 32.6185841,10.9121681 C33.2020086,10.8576953 33.7846411,11.0240692 34.2513274,11.3784071 C34.6964803,11.7290751 35.0609175,12.1714733 35.3198673,12.675531 C35.5873197,13.1820138 35.7838793,13.7228579 35.9040265,14.2828761 C36.0249705,14.8367994 36.1017699,15.2691741 36.1344248,15.58 C35.0822123,15.648938 34.0058112,15.735413 32.9052212,15.8394248 C31.8046313,15.9434365 30.7258112,16.0299115 29.668761,16.0988496 L29.668761,16.0988496 Z" id="形状"></path>
                </g>
                <circle id="椭圆形" fill="#C8D9DB" cx="9.55752212" cy="123.893805" r="7.16814159"></circle>
                <circle id="椭圆形备份" stroke="#FCCFA5" stroke-width="3.18584071" cx="173.823009" cy="76.0442478" r="5.17699115"></circle>
            </g>
        </g>
    </g>
</svg>