<?xml version="1.0" standalone="no"?><!DOCTYPE svg PUBLIC "-//W3C//DTD SVG 1.1//EN" "http://www.w3.org/Graphics/SVG/1.1/DTD/svg11.dtd"><svg t="1620293310863" class="icon" viewBox="0 0 1024 1024" version="1.1" xmlns="http://www.w3.org/2000/svg" p-id="2666" xmlns:xlink="http://www.w3.org/1999/xlink" width="200" height="200"><defs><style type="text/css"></style></defs><path d="M964.8 678.4l-136-136c-68.8-68.8-179.2-76.8-256-20.8L496 444.8c20.8-33.6 33.6-72 33.6-110.4 0-56-20.8-107.2-59.2-144l-128-131.2c-76.8-76.8-204.8-76.8-281.6 0C24 96 3.2 142.4 3.2 198.4s20.8 102.4 59.2 140.8l131.2 136c38.4 38.4 89.6 59.2 140.8 59.2 33.6 0 72-8 102.4-30.4l81.6 81.6c-17.6 30.4-30.4 64-30.4 102.4 0 56 20.8 102.4 59.2 140.8l131.2 136c38.4 38.4 89.6 59.2 140.8 59.2 51.2 0 102.4-20.8 140.8-59.2 38.4-38.4 59.2-84.8 59.2-140.8 4.8-56-16-107.2-54.4-145.6zM254.4 414.4l-131.2-136c-20.8-20.8-33.6-51.2-33.6-81.6s12.8-59.2 33.6-81.6 51.2-33.6 81.6-33.6 59.2 12.8 81.6 33.6l136 136c20.8 20.8 33.6 51.2 33.6 81.6 0 17.6-4.8 33.6-12.8 51.2l-38.4-38.4c-17.6-17.6-43.2-17.6-59.2 0-17.6 17.6-17.6 43.2 0 59.2l33.6 33.6c-44.8 14.4-91.2 6.4-124.8-24z m651.2 486.4c-46.4 46.4-120 46.4-161.6 0L608 764.8c-20.8-20.8-33.6-51.2-33.6-81.6 0-12.8 4.8-25.6 8-38.4l33.6 33.6c8 8 20.8 12.8 30.4 12.8 12.8 0 20.8-4.8 30.4-12.8 17.6-17.6 17.6-43.2 0-59.2l-33.6-38.4c17.6-8 33.6-12.8 51.2-12.8 30.4 0 59.2 12.8 81.6 33.6l136 136c20.8 20.8 33.6 51.2 33.6 81.6-6.4 30.4-19.2 60.8-40 81.6z" p-id="2667" fill="#8a8a8a"></path></svg>