<svg t="1614921325348" class="icon" viewBox="0 0 1024 1024" version="1.1" xmlns="http://www.w3.org/2000/svg" p-id="1235" width="200" height="200"><path d="M877.691773 65.042365 146.307204 65.042365c-44.878117 0-81.264838 36.386722-81.264838 81.264838l0 731.384569c0 44.88835 36.386722 81.264838 81.264838 81.264838l731.384569 0c44.878117 0 81.264838-36.376489 81.264838-81.264838L958.956611 146.307204C958.956611 101.429087 922.570913 65.042365 877.691773 65.042365zM288.521183 186.939623c56.106856 0 101.58156 45.494147 101.58156 101.58156 0 56.117089-45.473681 101.58156-101.58156 101.58156s-101.58156-45.463448-101.58156-101.58156C186.939623 232.43377 232.413304 186.939623 288.521183 186.939623zM816.743656 837.059354 207.256344 837.059354c-11.228739 0-20.316721-9.077749-20.316721-20.286022 0-4.187369 1.565658-7.866155 3.709485-11.08036l-0.295735-0.218988 203.162096-345.376075 0.296759 0.199545c3.671623-5.41636 9.562796-9.245572 16.607236-9.245572 8.451486 0 15.673981 5.189186 18.729573 12.519128L535.213701 622.608144l84.320431-84.328617c3.689019-3.680832 8.729825-5.962805 14.363126-5.962805 8.550747 0 15.791661 5.327332 18.808368 12.82612l0.059352-0.038886 177.904853 256.998235c2.084475 1.974981 3.729951 4.284583 4.841262 6.964622l0.099261 0.148379-0.059352 0.038886c0.911766 2.311649 1.508353 4.831029 1.508353 7.521301C837.059354 827.981604 827.971371 837.059354 816.743656 837.059354z" p-id="1236" fill="#2c2c2c"></path></svg>