<?xml version="1.0" standalone="no"?><!DOCTYPE svg PUBLIC "-//W3C//DTD SVG 1.1//EN" "http://www.w3.org/Graphics/SVG/1.1/DTD/svg11.dtd"><svg t="1631012551250" class="icon" viewBox="0 0 1024 1024" version="1.1" xmlns="http://www.w3.org/2000/svg" p-id="6318" xmlns:xlink="http://www.w3.org/1999/xlink" width="32" height="32"><defs><style type="text/css"></style></defs><path d="M906.666667 554.666667a32 32 0 0 1 31.701333 27.648l0.298667 4.352v213.333333a138.666667 138.666667 0 0 1-130.773334 138.453333L800 938.666667h-199.168c22.912-16.426667 41.557333-38.4 53.973333-63.957334l145.194667-0.042666a74.666667 74.666667 0 0 0 74.410667-68.565334l0.256-6.101333v-213.333333a32 32 0 0 1 32-32zM403.072 732.373333l4.864 4.394667 174.336 174.336 0.981333 0.810667a138.026667 138.026667 0 0 1-81.92 26.752h-277.333333a138.026667 138.026667 0 0 1-81.92-26.752l1.024-0.853334 174.293333-174.293333 4.864-4.394667a64 64 0 0 1 80.810667 0zM501.333333 384A138.666667 138.666667 0 0 1 640 522.666667v277.333333c0 30.634667-9.941333 58.965333-26.752 81.92l-0.853333-1.024-174.293334-174.293333-5.546666-5.205334a106.666667 106.666667 0 0 0-139.477334-0.256l-5.845333 5.461334-174.293333 174.293333-0.853334 0.981333A138.026667 138.026667 0 0 1 85.333333 800v-277.333333A138.666667 138.666667 0 0 1 224 384h277.333333zM469.333333 512a42.666667 42.666667 0 1 0 0 85.333333 42.666667 42.666667 0 0 0 0-85.333333z m330.666667-426.666667a138.666667 138.666667 0 0 1 138.453333 130.816L938.666667 224v213.333333a32 32 0 0 1-63.701334 4.352l-0.298666-4.352v-213.333333a74.666667 74.666667 0 0 0-68.522667-74.410667L800 149.333333h-213.333333a32 32 0 0 1-4.352-63.701333L586.666667 85.333333h213.333333z m-362.666667 0a32 32 0 0 1 4.352 63.701334l-4.352 0.298666h-213.333333a74.666667 74.666667 0 0 0-74.410667 68.522667L149.333333 224v145.152c-25.557333 12.458667-47.530667 31.146667-64 54.016V224a138.666667 138.666667 0 0 1 130.816-138.453333L224 85.333333h213.333333z" p-id="6319" fill="#dedede"></path></svg>