<?xml version="1.0" encoding="UTF-8"?>
<svg width="190px" height="187px" viewBox="0 0 190 187" version="1.1" xmlns="http://www.w3.org/2000/svg" xmlns:xlink="http://www.w3.org/1999/xlink">
    <title>将产品按类别分组备份 2</title>
    <defs>
        <rect id="path-1" x="39.6548673" y="37.079646" width="93.9823009" height="119.469027"></rect>
        <filter x="-29.8%" y="-21.8%" width="159.6%" height="146.9%" filterUnits="objectBoundingBox" id="filter-2">
            <feGaussianBlur stdDeviation="0" in="SourceGraphic"></feGaussianBlur>
        </filter>
        <filter x="-45.8%" y="-34.3%" width="191.5%" height="172.0%" filterUnits="objectBoundingBox" id="filter-3">
            <feOffset dx="0" dy="2" in="SourceAlpha" result="shadowOffsetOuter1"></feOffset>
            <feGaussianBlur stdDeviation="14" in="shadowOffsetOuter1" result="shadowBlurOuter1"></feGaussianBlur>
            <feColorMatrix values="0 0 0 0 0.840636322   0 0 0 0 0.833155813   0 0 0 0 0.833155813  0 0 0 0.5 0" type="matrix" in="shadowBlurOuter1"></feColorMatrix>
        </filter>
    </defs>
    <g id="后台" stroke="none" stroke-width="1" fill="none" fill-rule="evenodd">
        <g id="列表展示、产品分类-缺省状态" transform="translate(-337.000000, -766.000000)">
            <g id="将产品按类别分组备份-2" transform="translate(337.000000, 766.000000)">
                <g id="编组-2备份-2" transform="translate(179.218835, 21.365478) rotate(41.000000) translate(-179.218835, -21.365478) translate(171.718835, 13.865478)" fill="#E0EBEC">
                    <rect id="矩形" x="0.589487322" y="6.2068339" width="14.3362832" height="2.38938053"></rect>
                    <polygon id="矩形备份" transform="translate(7.757629, 7.401524) rotate(-270.000000) translate(-7.757629, -7.401524) " points="0.589487322 6.2068339 14.9257705 6.2068339 14.9257705 8.59621443 0.589487322 8.59621443"></polygon>
                </g>
                <g id="编组备份-3" transform="translate(33.309735, 33.000000) scale(-1, 1) translate(-33.309735, -33.000000) translate(0.309735, 0.000000)" fill-rule="nonzero">
                    <path d="M0,32.6548673 C-2.2086242e-15,14.6200821 14.6200821,3.31293629e-15 32.6548673,0 C50.6896525,-3.31293629e-15 65.3097345,14.6200821 65.3097345,32.6548673 C65.3097345,50.6896525 50.6896525,65.3097345 32.6548673,65.3097345 C14.6200821,65.3097345 2.2086242e-15,50.6896525 0,32.6548673 Z" id="形状" fill="#A5C8CC"></path>
                    <g id="编组" transform="translate(30.809735, 31.500000) scale(-1, 1) translate(-30.809735, -31.500000) translate(14.309735, 17.000000)" fill="#FFFFFF">
                        <path d="M29.5906227,11.1317455 L23.3357177,11.1317455 L25.0299824,3.90351735 C25.0299824,1.75195616 23.2391188,0 21.0462577,0 C18.8507964,0 17.0599715,1.75195616 17.0599715,3.90351735 C17.0599715,3.90351735 15.6920239,11.2393197 10.6536674,11.2726392 C10.6536674,11.2726392 7.97525035,11.3930081 7.97525035,14.499981 L7.97525035,25.6548025 C7.97525035,27.498987 9.50499816,29 11.3846211,29 L26.1786129,29 C28.4654725,29 29.2877857,26.4898072 29.6454229,25.4037833 L32.9503938,14.8227037 C32.984314,14.7151295 32.9999967,14.5998632 32.9999967,14.4897376 C33.0025937,12.6429638 31.4702068,11.1317455 29.5906227,11.1317455 Z M3.38589047,11.6619628 L2.61837746,11.6619628 C1.17214947,11.6619628 0,12.6429638 0,13.8544974 L0,26.5231267 C0,27.7346602 1.17214947,28.7156613 2.61837746,28.7156613 L3.38589047,28.7156613 C4.83211847,28.7156613 6.00427224,27.7346602 6.00427224,26.5231267 L6.00427224,13.8544974 C6.00686823,12.6429638 4.83211847,11.6619628 3.38589047,11.6619628 L3.38589047,11.6619628 Z M2.88465511,26.8919635 C2.1693808,26.8919635 1.58722591,26.3233241 1.58722591,25.6189698 C1.58722591,24.9146155 2.1667417,24.3459761 2.88465511,24.3459761 C3.59992942,24.3459761 4.18208431,24.9145774 4.18208431,25.6189698 C4.18208431,26.3233622 3.60256852,26.8919635 2.88465511,26.8919635 Z" id="形状"></path>
                    </g>
                </g>
                <g id="矩形备份-5" opacity="0.62949673" filter="url(#filter-2)">
                    <use fill="black" fill-opacity="1" filter="url(#filter-3)" xlink:href="#path-1"></use>
                    <use fill="#FFFFFF" fill-rule="evenodd" xlink:href="#path-1"></use>
                </g>
                <g id="编组" transform="translate(117.000000, 121.000000)" fill="#FCC690" fill-rule="nonzero">
                    <path d="M41.1241554,0 L5.87584464,0 C2.56556999,0.0711509144 -0.0623515776,2.79781295 0.00112617842,6.09545276 L0.00112617842,28.9604229 C0.00112617842,32.321817 2.68939733,35.4304043 6.0074383,35.4304043 L14.965209,35.4304043 C16.5255343,37.0876932 22.9830248,43.7823917 22.9830248,43.7823917 C23.1187693,43.9215088 23.3052421,44 23.5,44 C23.6947579,44 23.8812307,43.9215088 24.0169752,43.7823917 C24.0169752,43.7823917 28.7449486,38.4172697 31.8280009,35.4304043 L40.9925617,35.4304043 C44.3106027,35.4304043 46.9988739,32.321817 46.9988738,28.9604229 L46.9988738,6.09545276 C47.0623516,2.79781295 44.43443,0.0711509144 41.1241554,0 Z M11.7505631,21.2825869 C10.5020178,21.3311189 9.3491593,20.6189508 8.83783594,19.4832758 C8.32651257,18.3476007 8.55934972,17.0163548 9.42610507,16.1198482 C10.2928604,15.2233416 11.6195715,14.941508 12.7780752,15.4077884 C13.9365789,15.8740687 14.6943573,16.9948779 14.6926221,18.2395421 C14.7230191,19.888849 13.4062423,21.2508241 11.7505631,21.2825869 L11.7505631,21.2825869 Z M23.5,21.2825869 C22.2502564,21.3353639 21.0939129,20.6256994 20.5791965,19.490048 C20.06448,18.3543966 20.294868,17.0210672 21.1611327,16.1221964 C22.0273973,15.2233255 23.3553866,14.9396202 24.5154958,15.4055863 C25.6756051,15.8715523 26.4346084,16.9935128 26.4326594,18.2395421 C26.4630983,19.8852696 25.1519802,21.2457382 23.5,21.2825869 Z M35.2494369,21.2825869 C33.9996933,21.3353639 32.8433499,20.6256994 32.3286334,19.490048 C31.813917,18.3543966 32.044305,17.0210672 32.9105696,16.1221964 C33.7768342,15.2233255 35.1048235,14.9396202 36.2649328,15.4055863 C37.425042,15.8715523 38.1840453,16.9935128 38.1820964,18.2395421 C38.2114975,19.8848646 36.9009685,21.244722 35.2494369,21.2825869 L35.2494369,21.2825869 Z" id="形状"></path>
                </g>
                <g id="编组" transform="translate(74.000000, 77.000000)" fill="#C8D9DB" fill-rule="nonzero">
                    <path d="M16.5004556,4.15138267 L22.672092,10.0708508 L8.46088196,23.7019954 C7.8608755,24.2775725 7.09893132,24.6728676 6.26831985,24.8394922 L0.525575318,25.9911657 C0.382780871,26.0197481 0.234539932,25.9780102 0.130506937,25.8799325 C0.0264739407,25.7818547 -0.0195939657,25.6404067 0.00773401418,25.5029675 L1.11812335,19.9286405 C1.28218463,19.1048039 1.70049025,18.3472416 2.31880573,17.7541736 L16.5004556,4.15138267 Z M23.2751205,0.613105322 L26.3609387,3.57296828 C27.2130204,4.39032914 27.2130204,5.71547039 26.3609387,6.53283125 L24.473653,8.34282495 L18.3022853,2.42309902 L20.1893023,0.612847556 C21.0415196,-0.20438317 22.4230515,-0.204267767 23.2751205,0.613105322 Z" id="形状"></path>
                    <path d="M26,24.5 C26,25.3284271 26.6715729,26 27.5,26 C28.3284271,26 29,25.3284271 29,24.5 C29,23.6715729 28.3284271,23 27.5,23 C26.6715729,23 26,23.6715729 26,24.5 L26,24.5 Z" id="路径"></path>
                    <path d="M19,24.5 C19,25.3284271 19.6715729,26 20.5,26 C21.3284271,26 22,25.3284271 22,24.5 C22,23.6715729 21.3284271,23 20.5,23 C19.6715729,23 19,23.6715729 19,24.5 Z" id="路径"></path>
                    <path d="M13,24.5 C13,25.0358984 13.2858984,25.5310889 13.75,25.7990381 C14.2141016,26.0669873 14.7858984,26.0669873 15.25,25.7990381 C15.7141016,25.5310889 16,25.0358984 16,24.5 C16,23.9641016 15.7141016,23.4689111 15.25,23.2009619 C14.7858984,22.9330127 14.2141016,22.9330127 13.75,23.2009619 C13.2858984,23.4689111 13,23.9641016 13,24.5 Z" id="路径"></path>
                </g>
                <circle id="椭圆形备份-4" fill="#FDAD37" opacity="0.148414789" cx="9.55752212" cy="133.451327" r="7.16814159"></circle>
                <circle id="椭圆形备份-5" stroke="#FCCFA5" stroke-width="3.18584071" cx="171.823009" cy="79.6017699" r="5.17699115"></circle>
            </g>
        </g>
    </g>
</svg>