<?xml version="1.0" encoding="UTF-8"?>
<svg width="16px" height="16px" viewBox="0 0 16 16" version="1.1" xmlns="http://www.w3.org/2000/svg" xmlns:xlink="http://www.w3.org/1999/xlink">
    <title>数据中心</title>
    <g id="2021下" stroke="none" stroke-width="1" fill="none" fill-rule="evenodd" >
        <g id="b端-会员系统-预览图" transform="translate(-1480.000000, -2552.000000)" fill="#FFFFFF" fill-rule="nonzero">
            <g id="数据中心" transform="translate(1480.000000, 2552.000000)">
                <path d="M15.2605042,14.4537815 C15.4090177,14.4537815 15.5294118,14.5741755 15.5294118,14.7226891 L15.5294118,15.2605042 C15.5294118,15.4090177 15.4090177,15.5294118 15.2605042,15.5294118 L0.739495798,15.5294118 C0.590982252,15.5294118 0.470588235,15.4090177 0.470588235,15.2605042 L0.470588235,14.7226891 C0.470588235,14.5741755 0.590982252,14.4537815 0.739495798,14.4537815 L15.2605042,14.4537815 Z M4.50420168,4.77310924 C4.65271523,4.77310924 4.77310924,4.89350326 4.77310924,5.04201681 L4.77310924,13.1092437 C4.77310924,13.2577572 4.65271523,13.3781513 4.50420168,13.3781513 L0.739495798,13.3781513 C0.590982252,13.3781513 0.470588235,13.2577572 0.470588235,13.1092437 L0.470588235,5.04201681 C0.470588235,4.89350326 0.590982252,4.77310924 0.739495798,4.77310924 L4.50420168,4.77310924 Z M9.88235294,0.470588235 C10.0308665,0.470588235 10.1512605,0.590982252 10.1512605,0.739495798 L10.1512605,13.1092437 C10.1512605,13.2577572 10.0308665,13.3781513 9.88235294,13.3781513 L6.11764706,13.3781513 C5.96913351,13.3781513 5.8487395,13.2577572 5.8487395,13.1092437 L5.8487395,0.739495798 C5.8487395,0.590982252 5.96913351,0.470588235 6.11764706,0.470588235 L9.88235294,0.470588235 Z M15.2605042,8 C15.4090177,8 15.5294118,8.12039402 15.5294118,8.26890756 L15.5294118,13.1092437 C15.5294118,13.2577572 15.4090177,13.3781513 15.2605042,13.3781513 L11.4957983,13.3781513 C11.3472848,13.3781513 11.2268908,13.2577572 11.2268908,13.1092437 L11.2268908,8.26890756 C11.2268908,8.12039402 11.3472848,8 11.4957983,8 L15.2605042,8 Z" id="形状"></path>
            </g>
        </g>
    </g>
</svg>