<?xml version="1.0" standalone="no"?><!DOCTYPE svg PUBLIC "-//W3C//DTD SVG 1.1//EN" "http://www.w3.org/Graphics/SVG/1.1/DTD/svg11.dtd"><svg t="1629793642443" class="icon" viewBox="0 0 1024 1024" version="1.1" xmlns="http://www.w3.org/2000/svg" p-id="8280" width="32" height="32" xmlns:xlink="http://www.w3.org/1999/xlink"><defs><style type="text/css"></style></defs><path d="M703.65696 1021.27616v-395.23328h132.37248l19.80416-153.64608h-152.17664V374.35392c0-44.48256 12.3648-74.83904 76.1344-74.83904h81.36192V162.0992a1088.7936 1088.7936 0 0 0-118.5792-6.0672c-117.2736 0-197.56032 71.60832-197.56032 203.13088v113.23904H412.3648v153.64608h132.6592v395.23328H56.73472A56.73984 56.73984 0 0 1 0 964.53632V56.7296C0 25.3952 25.40544 0 56.73984 0h907.8016a56.7296 56.7296 0 0 1 56.73472 56.73984v907.8016a56.7296 56.7296 0 0 1-56.73984 56.73472h-260.87936z" p-id="8281"></path></svg>