<?xml version="1.0" encoding="UTF-8"?>
<svg width="15px" height="16px" viewBox="0 0 15 16" version="1.1" xmlns="http://www.w3.org/2000/svg" xmlns:xlink="http://www.w3.org/1999/xlink">
    <title>功能</title>
    <g id="2021下" stroke="none" stroke-width="1" fill="none" fill-rule="evenodd" >
        <g id="b端-会员系统-预览图" transform="translate(-1481.000000, -2640.000000)" fill="#FFFFFF" fill-rule="nonzero">
            <g id="功能" transform="translate(1481.000000, 2640.000000)">
                <path d="M13.4304584,3.45571096 L7.80691531,0.205905206 C7.35236985,-0.0563325563 6.80652681,-0.0563325563 6.35198135,0.205905206 L0.726495726,3.45571096 C0.271950272,3.71794872 0,4.19386169 0,4.71639472 L0,11.2160062 C0,11.7385392 0.271950272,12.2163947 0.726495726,12.47669 L6.36169386,15.7264957 C6.81623932,15.9887335 7.36208236,15.9887335 7.81662782,15.7264957 L13.451826,12.47669 C13.9063714,12.2144522 14.1783217,11.7385392 14.1783217,11.2160062 L14.1783217,4.71639472 C14.1569542,4.19386169 13.8850039,3.71794872 13.4304584,3.45571096 Z M11.3170163,6.2956488 L7.45337995,8.47707848 L7.45337995,12.8749029 C7.44172494,13.1021756 7.3970474,13.2731158 7.2027972,13.3177933 C7.11149961,13.3741259 7.02020202,13.3974359 6.91919192,13.3974359 L6.87451437,13.3974359 C6.73076923,13.3974359 6.59090909,13.3391608 6.48795649,13.2381507 C6.38500389,13.1351981 6.32867133,12.9972805 6.32867133,12.8515929 L6.32867133,8.35275835 C6.32867133,8.31779332 6.32867133,8.28477078 6.34032634,8.24980575 L2.88655789,6.2956488 C2.62432012,6.14801865 2.47668998,5.81779332 2.62432012,5.55749806 C2.77195027,5.2952603 3.07886558,5.20590521 3.32944833,5.35353535 L7.09013209,7.53496503 L10.8624709,5.35353535 C11.1247086,5.20590521 11.4083139,5.2972028 11.5559441,5.55749806 C11.7035742,5.80808081 11.5773116,6.14801865 11.3170163,6.2956488 L11.3170163,6.2956488 Z" id="形状"></path>
            </g>
        </g>
    </g>
</svg>