<?xml version="1.0" standalone="no"?><!DOCTYPE svg PUBLIC "-//W3C//DTD SVG 1.1//EN" "http://www.w3.org/Graphics/SVG/1.1/DTD/svg11.dtd"><svg t="1627890331856" class="icon" viewBox="0 0 1181 1024" version="1.1" xmlns="http://www.w3.org/2000/svg" p-id="5039" xmlns:xlink="http://www.w3.org/1999/xlink" width="230.6640625" height="200"><defs><style type="text/css"></style></defs><path d="M1170.287964 330.622101L940.286215 20.330406A48.906381 48.906381 0 0 0 899.609651 0.011813H281.349512A49.772678 49.772678 0 0 0 237.325894 26.394483L10.671199 332.118431c-3.583318 4.92214-6.300339 10.356182-8.151063 16.144619-5.630928 17.522818-1.693216 36.738852 10.356182 50.402712l533.953728 599.556007c2.441381 3.819581 5.434042 7.24539 8.899229 10.159297 2.441381 2.32325 5.19778 4.331483 8.111686 6.024699a49.615169 49.615169 0 0 0 63.594047-4.528369c5.119025-4.92214 9.253623-10.78933 12.206906-17.325932l528.440932-593.846325c12.600678-14.057631 16.53839-33.982453 10.356182-51.899042a60.168237 60.168237 0 0 0-8.151064-16.183996z m-312.851207 108.011436l-248.863389 291.863203-4.016466 4.252729a46.149983 46.149983 0 0 1-32.879894 13.38822 46.819394 46.819394 0 0 1-33.234288-13.38822l-5.394666-4.252729L285.877881 438.672914a54.616063 54.616063 0 0 1 5.670305-70.524419 47.01628 47.01628 0 0 1 66.586708 0.236263l212.793948 249.650931 212.793949-249.650931a47.01628 47.01628 0 0 1 66.547331-0.236263c18.901017 18.349737 21.342398 49.024513 5.709682 70.485042h1.417576z" fill="#FFFFFF" p-id="5040"></path></svg>