<?xml version="1.0" standalone="no"?><!DOCTYPE svg PUBLIC "-//W3C//DTD SVG 1.1//EN" "http://www.w3.org/Graphics/SVG/1.1/DTD/svg11.dtd"><svg t="1627890322089" class="icon" viewBox="0 0 1188 1024" version="1.1" xmlns="http://www.w3.org/2000/svg" p-id="4755" xmlns:xlink="http://www.w3.org/1999/xlink" width="232.03125" height="200"><defs><style type="text/css"></style></defs><path d="M0.98304 291.96288l3.97312-11.96032c7.86432-27.8528 35.55328-47.80032 67.1744-51.8144 27.60704-3.97312 55.296 15.9744 71.0656 39.89504 11.8784 27.8528 7.90528 59.8016-11.83744 83.68128l-7.90528 7.9872c55.296 35.84 110.592 67.74784 165.2736 99.61472 19.74272 11.96032 39.5264 23.92064 63.20128 39.85408 11.8784 7.9872 19.78368 4.01408 27.648-7.94624l188.98944-346.112c-27.648-15.93344-43.4176-35.84-47.39072-67.74784 0-23.92064 7.90528-39.85408 23.67488-55.78752 31.62112-31.90784 82.98496-27.89376 110.63296 7.94624 31.62112 39.85408 19.74272 83.72224-27.648 119.6032 15.81056 27.8528 31.58016 59.8016 47.39072 91.66848 47.43168 83.68128 90.89024 166.7072 134.3488 250.42944 11.83744 19.90656 15.7696 19.90656 35.55328 7.94624 71.10656-43.8272 142.21312-87.6544 208.73216-131.4816 3.93216-4.01408 7.90528-4.01408 11.83744-7.9872-15.81056-15.9744-23.71584-31.90784-23.71584-51.8144-3.93216-39.85408 23.71584-71.76192 59.26912-79.74912 39.5264-7.94624 75.07968 15.9744 82.98496 51.8144 0 4.01408 3.93216 4.01408 3.93216 7.9872v27.89376c-11.8784 39.85408-35.55328 59.8016-79.01184 59.8016 0 3.97312-3.93216 7.94624-3.93216 11.96032-39.5264 143.48288-82.98496 282.29632-122.4704 425.7792-3.97312 19.94752-11.8784 23.92064-31.62112 23.92064H237.3632c-19.74272 0-27.648-3.97312-31.58016-23.92064-31.62112-115.58912-67.1744-230.48192-98.79552-346.112-7.90528-31.86688-19.74272-63.73376-27.648-95.6416-31.62112 0-55.296-11.91936-71.10656-39.85408-3.97312 0-3.97312-7.94624-7.90528-15.93344 0.65536 0 0.65536-23.92064 0.65536-23.92064z m591.29856 624.4352h331.20256c27.648 0 51.36384 19.90656 55.296 47.80032 3.93216 27.93472-15.81056 55.82848-43.4176 59.8016H261.03808c-23.71584 0-47.43168-15.9744-55.296-39.85408-7.90528-23.92064 0-47.84128 19.74272-63.77472 11.8784-7.9872 23.67488-11.96032 35.55328-11.96032 110.592 7.9872 220.5696 7.9872 331.20256 7.9872z" fill="#FFFFFF" p-id="4756"></path></svg>