<?xml version="1.0" standalone="no"?><!DOCTYPE svg PUBLIC "-//W3C//DTD SVG 1.1//EN" "http://www.w3.org/Graphics/SVG/1.1/DTD/svg11.dtd"><svg t="1627890336829" class="icon" viewBox="0 0 1181 1024" version="1.1" xmlns="http://www.w3.org/2000/svg" p-id="5181" xmlns:xlink="http://www.w3.org/1999/xlink" width="230.6640625" height="200"><defs><style type="text/css"></style></defs><path d="M1101.309027 224.404908c-42.179301 0-71.716626 32.64859-71.716627 73.449482 0 8.152302 0 20.400446 4.213992 28.552748l-240.512596 93.810546-168.795969-285.52748c21.109342-12.248144 33.751317-36.744433 33.751317-61.201338C658.249144 32.687974 624.497827 0.039383 586.532518 0.039383S514.737125 32.687974 514.737125 73.488866c0 24.456906 12.681358 44.857352 29.537326 61.161955L358.661898 420.257067 139.258644 322.311296c4.213992-8.152302 8.427984-20.400446 8.427983-28.552748 0-40.800892-33.751317-73.4101-71.716626-73.4101C33.751317 220.348448 0 252.957655 0 293.758548s33.751317 73.449483 71.716626 73.449482l113.93531 485.436099c4.213992 20.400446 21.109342 32.687974 42.218684 32.687974h725.751779c21.109342 0 33.751317-12.287527 42.218684-32.687974l113.93531-485.436099C1151.955694 367.20803 1181.493019 334.55944 1181.493019 293.758548s-42.179301-69.314257-80.183992-69.314257z m-189.865929 579.32541H248.901196l-88.611976-375.320949 185.691319 81.562401c16.855967 8.152302 42.179301 0 50.607285-16.304603l177.223952-273.318719 160.367986 269.222876c8.427984 16.343987 33.751317 24.496289 50.646668 16.343987l210.97527-85.697627-84.397985 383.473251z m25.323334 138.667897h-708.895812c-21.109342 0-42.218684 16.343987-42.218684 40.800893 0 24.496289 16.89535 40.800892 42.218684 40.800892h708.895812c21.069959 0 42.179301-16.304604 42.179301-40.800892 0-20.400446-21.109342-40.800892-42.179301-40.800893z" fill="#FFFFFF" p-id="5182"></path></svg>