<?xml version="1.0" standalone="no"?><!DOCTYPE svg PUBLIC "-//W3C//DTD SVG 1.1//EN" "http://www.w3.org/Graphics/SVG/1.1/DTD/svg11.dtd"><svg t="1627890327299" class="icon" viewBox="0 0 1181 1024" version="1.1" xmlns="http://www.w3.org/2000/svg" p-id="4897" xmlns:xlink="http://www.w3.org/1999/xlink" width="230.6640625" height="200"><defs><style type="text/css"></style></defs><path d="M875.781514 0c55.729231 0 104.920615 28.790154 131.150769 73.609846l154.151385 256a142.572308 142.572308 0 0 1-19.692308 172.780308L701.977206 975.990154c-26.230154 28.829538-68.883692 48.009846-111.497846 48.009846-42.614154 0-85.267692-19.219692-111.458462-48.009846L39.527975 505.619692C-6.355102 457.531077-12.892948 387.150769 23.18336 329.531077l154.112-256A149.543385 149.543385 0 0 1 305.177206 0h570.604308z m0 95.980308H305.177206c-16.384 0-36.076308 9.609846-45.883077 25.6l-154.151384 256a47.576615 47.576615 0 0 0 6.57723 60.809846l439.414154 470.409846c19.692308 22.409846 59.037538 22.409846 75.421539 0l439.414154-470.409846c16.384-15.990154 19.692308-41.590154 6.57723-60.809846l-154.151384-259.15077c-6.537846-12.839385-22.961231-22.449231-42.614154-22.44923z m-514.126769 312.713846L590.794437 632.910769l229.139692-224.216615a49.624615 49.624615 0 0 1 70.774154 0c20.204308 19.771077 20.204308 49.467077 0 69.238154l-262.852923 257.181538c-10.121846 6.616615-23.591385 13.193846-37.060923 13.193846-13.469538 0-26.939077-3.308308-37.060923-13.193846l-262.852923-257.181538c-20.204308-19.771077-20.204308-49.467077 0-69.238154a49.624615 49.624615 0 0 1 70.774154 0z" fill="#FFFFFF" p-id="4898"></path></svg>