<?xml version="1.0" encoding="UTF-8"?>
<svg width="16px" height="14px" viewBox="0 0 16 14" version="1.1" xmlns="http://www.w3.org/2000/svg" xmlns:xlink="http://www.w3.org/1999/xlink">
    <title>会员中心</title>
    <g id="2021下" stroke="none" stroke-width="1" fill="none" fill-rule="evenodd">
        <g id="b端-会员系统-预览图" transform="translate(-1480.000000, -2597.000000)" fill="#FFFFFF" fill-rule="nonzero">
            <path d="M1495.85062,2601.52094 L1492.73543,2597.2779 C1492.60673,2597.09879 1492.40121,2596.99518 1492.18451,2597.00017 L1483.81054,2597.00017 C1483.56262,2596.99889 1483.33391,2597.13705 1483.21454,2597.36019 L1480.14442,2601.54151 C1480.09599,2601.60844 1480.05875,2601.68318 1480.03423,2601.76266 C1479.95785,2602.00163 1480.0113,2602.26428 1480.17447,2602.45184 L1487.40654,2610.64991 C1487.43967,2610.70206 1487.48018,2610.74886 1487.52674,2610.78877 C1487.56007,2610.8207 1487.59707,2610.84833 1487.63692,2610.87106 C1487.9017,2611.06391 1488.26222,2611.03808 1488.49836,2610.80934 C1488.56757,2610.74197 1488.62366,2610.66168 1488.66363,2610.57276 L1495.82057,2602.45184 C1495.9912,2602.25991 1496.0451,2601.98713 1495.96081,2601.74209 C1495.93526,2601.66304 1495.89811,2601.58846 1495.85062,2601.52094 Z M1491.88016,2603.28329 L1488.50887,2607.73075 L1488.45505,2607.79512 C1488.33392,2607.92885 1488.17462,2608.00213 1488.00979,2607.99994 C1487.84344,2608.00244 1487.68252,2607.92922 1487.55963,2607.79512 L1487.48623,2607.73075 L1484.13942,2603.28329 C1483.92726,2602.95578 1483.96067,2602.48838 1484.21625,2602.2087 C1484.47182,2601.92902 1484.86405,2601.93063 1485.11802,2602.21238 L1488,2606.01614 L1490.88198,2602.21238 C1491.13595,2601.93063 1491.52818,2601.92902 1491.78375,2602.2087 C1492.03933,2602.48838 1492.07274,2602.95578 1491.86058,2603.28329 L1491.88016,2603.28329 Z" id="会员中心"></path>
        </g>
    </g>
</svg>