<?xml version="1.0" encoding="UTF-8"?>
<svg width="22px" height="18px" viewBox="0 0 22 18" version="1.1" xmlns="http://www.w3.org/2000/svg" xmlns:xlink="http://www.w3.org/1999/xlink">
    <title>会员系统</title>
    <g id="2021下" stroke="none" stroke-width="1" fill="none" fill-rule="evenodd">
        <g id="b端-会员系统-预览图" transform="translate(-1476.000000, -2496.000000)" fill="#FFFFFF" fill-rule="nonzero">
            <g id="会员系统" transform="translate(1476.000000, 2496.000000)">
                <path d="M0,5.39197683 L10.6608284,17.2043085 L5.66540572,5.39197683 L0,5.39197683 Z M11.1383801,17.2103691 L21.7712942,5.38230713 L16.0682318,5.38230713 L11.1383801,17.2103691 Z" id="形状"></path>
                <path d="M15.5237578,5.382 L10.8777713,16.6797829 L6.22675783,5.382 L15.5237578,5.382 Z M10.8872223,0 L15.6317578,4.898 L6.13075783,4.898 L10.8872223,0 Z" id="形状结合"></path>
                <path d="M11.5327059,-2.66453526e-15 L16.2928619,4.8987707 L21.7712942,4.8987707 L16.9701839,-2.66453526e-15 L11.5327059,-2.66453526e-15 Z M10.2385883,-1.33226763e-15 L4.79480965,-1.33226763e-15 L0,4.8987707 L5.47213165,4.8987707 L10.2385883,-1.33226763e-15 Z" id="形状"></path>
            </g>
        </g>
    </g>
</svg>