<?xml version="1.0" encoding="UTF-8"?>
<svg width="24px" height="24px" viewBox="0 0 24 24" version="1.1" xmlns="http://www.w3.org/2000/svg" xmlns:xlink="http://www.w3.org/1999/xlink">
    <title>Pinterest</title>
    <g id="新样式" stroke="none" stroke-width="1" fill="none" fill-rule="evenodd">
        <g id="c端-会员系统-登录（未上传图片/logo）" transform="translate(-986.000000, -867.000000)">
            <g id="编组-7备份" transform="translate(640.000000, 353.000000)">
                <g id="编组-6" transform="translate(40.000000, 150.000000)">
                    <g id="编组-4" transform="translate(230.000000, 364.000000)">
                        <g id="Pinterest" transform="translate(76.000000, 0.000000)">
                            <rect id="矩形" fill="#FFFFFF" opacity="0" x="0" y="0" width="24" height="24"></rect>
                            <g id="编组" transform="translate(3.000000, 3.000000)" fill="#222222" fill-rule="nonzero">
                                <path d="M0.00334038867,9 C0.00334038867,9.14018692 0.00334038867,9.28037384 0.0313777793,9.42056075 L0.0313777793,9.56074767 C0.0313777793,9.64485983 0.0594151699,9.75700935 0.0594151523,9.86915888 C0.0594151523,9.89719627 0.0594151523,9.95327104 0.087452543,10.0093458 C0.115489934,10.1214953 0.115489934,10.2336449 0.115489916,10.3457944 C0.115489916,10.3738318 0.115489916,10.4018692 0.143527307,10.4299065 C0.171564697,10.5700935 0.171564697,10.682243 0.227639461,10.8224299 C0.227639461,10.8504673 0.255676852,10.9065421 0.255676834,10.9345794 C0.283714225,11.0186916 0.283714225,11.1308411 0.311751598,11.2149533 C0.339788988,11.2429907 0.339788988,11.2990654 0.339788988,11.3551402 C0.367826379,11.4392523 0.395863752,11.5514019 0.423901143,11.635514 C0.451938533,11.6635514 0.451938533,11.7196262 0.451938516,11.7476635 C0.479975906,11.8878505 0.53605067,12 0.592125434,12.1121495 C0.620162824,12.1401869 0.620162824,12.1962617 0.620162824,12.2242991 C0.648200215,12.3084112 0.704274979,12.3925234 0.732312352,12.4766355 C0.760349742,12.5046729 0.760349742,12.5607477 0.788387115,12.6168224 C0.816424506,12.7009346 0.87249927,12.7570093 0.90053666,12.8691589 C0.928574051,12.8971963 0.928574051,12.953271 0.956611424,13.0093458 C1.01268619,13.1214953 1.06876095,13.2336449 1.12483571,13.317757 C1.15287311,13.3457944 1.15287311,13.3738318 1.18091048,13.4018692 C1.23698524,13.4859813 1.26502263,13.5700934 1.3210974,13.6542056 C1.29306001,13.6261682 1.34913479,13.682243 1.34913479,13.7383177 C1.37717218,13.8224299 1.43324694,13.8785047 1.48932171,13.9345794 C1.5173591,13.9626168 1.54539647,14.0186916 1.57343384,14.0747663 C1.62950861,14.1588785 1.68558337,14.2149533 1.74165815,14.2990654 C1.76969554,14.3271028 1.76969554,14.3551402 1.79773291,14.3831776 C1.88184507,14.4672897 1.93791983,14.5794393 2.02203199,14.6635514 C2.05006938,14.6915888 2.07810675,14.7476635 2.10614412,14.7757009 C2.16221889,14.8317757 2.21829365,14.8878505 2.24633104,14.9719626 L2.35848059,15.0841121 C2.41455535,15.1401869 2.47063011,15.2242991 2.52670488,15.2803738 C2.55474227,15.3084112 2.58277964,15.364486 2.61081703,15.364486 L2.86315348,15.6168224 C2.89119087,15.6448598 2.94726563,15.6728972 2.94726563,15.7009346 C3.00334039,15.7570093 3.08745255,15.8130841 3.14352731,15.8691589 C3.1715647,15.8971963 3.22763947,15.953271 3.25567684,15.953271 C3.3117516,16.0093458 3.39586376,16.0654206 3.45193852,16.0934579 C3.47997591,16.1214953 3.53605068,16.1495327 3.56408805,16.1775701 C3.6482002,16.2616823 3.76034973,16.317757 3.87249928,16.4018692 C3.90053667,16.4299065 3.92857404,16.4299065 3.95661141,16.4579439 C4.04072357,16.5140187 4.1248357,16.5700934 4.20894788,16.5981308 C4.23698527,16.6261682 4.29306003,16.6542056 4.34913478,16.682243 C4.43324693,16.7102804 4.48932169,16.7663551 4.57343385,16.8224299 C4.60147124,16.8504673 4.657546,16.8504673 4.68558338,16.9065421 C4.7977329,16.9626168 4.88184506,17.0186916 4.9939946,17.0747664 C5.02203199,17.0747664 5.02203199,17.1028037 5.02203197,17.1028037 C5.1341815,17.1588785 5.27436842,17.2149533 5.38651796,17.271028 C5.41455536,17.2990654 5.47063012,17.2990654 5.49866749,17.2990654 C5.55474226,17.3271028 5.58277965,17.3271028 5.63885441,17.3551402 C5.55474226,16.6542056 5.49866749,15.5607477 5.6668918,14.7757009 C5.83511609,14.0747664 6.70427497,10.317757 6.70427497,10.317757 C6.70427497,10.317757 6.45193853,9.78504673 6.45193853,9 C6.45193853,7.73831776 7.18091049,6.81308411 8.07810674,6.81308411 C8.8351161,6.81308411 9.22763946,7.40186916 9.22763946,8.07476636 C9.22763946,8.83177571 8.75100394,9.98130841 8.47063011,11.046729 C8.27436843,11.9439252 8.91922823,12.6728972 9.78838712,12.6728972 C11.3584806,12.6728972 12.5921254,10.9906542 12.5921254,8.57943925 C12.5921254,6.44859812 11.0500694,4.93457943 8.86315347,4.93457943 C6.31175161,4.93457943 4.82577029,6.84112148 4.82577029,8.80373832 C4.82577029,9.56074767 5.1341815,10.3738318 5.49866749,10.8504673 C5.58277965,10.9345794 5.58277965,11.0186916 5.55474226,11.1028037 C5.4706301,11.3831776 5.33044318,12 5.30240581,12.1121495 C5.27436842,12.2803738 5.16221889,12.3084112 4.9939946,12.2242991 C3.87249928,11.6915888 3.19960208,10.0654206 3.19960208,8.74766355 C3.19960208,5.94392523 5.24633105,3.33644861 9.11548992,3.33644861 C12.2276394,3.33644861 14.6388544,5.55140188 14.6388544,8.49532711 C14.6388544,11.5794393 12.704275,14.0747664 10.0126862,14.0747663 C9.08745254,14.0747663 8.27436843,13.5981308 7.96595722,13.0373832 C7.96595722,13.0373832 7.51735909,14.7476635 7.40520954,15.1682243 C7.20894786,15.953271 6.64820019,16.9065421 6.28371422,17.5233645 C6.39586375,17.5514019 6.53605066,17.6074766 6.64820021,17.635514 C6.6762376,17.6635514 6.73231236,17.6635514 6.78838713,17.6635514 C6.87249928,17.6915888 6.98464881,17.6915888 7.04072357,17.7196262 C7.06876096,17.7476636 7.12483573,17.7476636 7.18091049,17.7476636 C7.29306002,17.7757009 7.43324694,17.7757009 7.54539646,17.8037383 L7.57343385,17.8037383 C7.71362077,17.8317757 7.8257703,17.8317757 7.96595722,17.8598131 C7.99399461,17.8598131 8.05006937,17.8598131 8.10614413,17.8878505 C8.19025629,17.9158879 8.30240582,17.9158879 8.41455534,17.9158878 L8.52670487,17.9158878 C8.66689179,17.9158878 8.80707871,17.9439252 8.94726562,17.9439252 C13.8818451,17.9439252 17.8911909,13.9345794 17.8911909,9 C17.8911909,5.18691589 15.5080133,1.93457944 12.1715647,0.644859809 C12.0874525,0.560747654 11.975303,0.504672891 11.8631535,0.448598127 C11.610817,0.364485973 11.3304432,0.280373836 11.0500694,0.224299072 C10.7977329,0.168224309 10.5734338,0.112149545 10.3491348,0.0841121543 C10.0407236,0.0560747637 9.76034974,0 9.45193852,0 L8.97530302,0 C8.66689181,0 8.35848058,0.0280373906 8.05006937,0.0280373906 C7.90988245,0.0560747812 7.74165816,0.0560747812 7.60147123,0.0841121543 C3.28371423,0.813084117 0.00334038867,4.54205607 0.00334038867,9 Z" id="路径"></path>
                            </g>
                        </g>
                    </g>
                </g>
            </g>
        </g>
    </g>
</svg>