<?xml version="1.0" encoding="UTF-8"?>
<svg width="24px" height="24px" viewBox="0 0 24 24" version="1.1" xmlns="http://www.w3.org/2000/svg" xmlns:xlink="http://www.w3.org/1999/xlink">
    <title>Twitter</title>
    <g id="新样式" stroke="none" stroke-width="1" fill="none" fill-rule="evenodd">
        <g id="c端-会员系统-登录（未上传图片/logo）" transform="translate(-948.000000, -867.000000)">
            <g id="编组-7备份" transform="translate(640.000000, 353.000000)">
                <g id="编组-6" transform="translate(40.000000, 150.000000)">
                    <g id="编组-4" transform="translate(230.000000, 364.000000)">
                        <g id="Twitter" transform="translate(38.000000, 0.000000)">
                            <rect id="矩形" fill="#FFFFFF" opacity="0" x="0" y="0" width="24" height="24"></rect>
                            <g id="编组" transform="translate(3.000000, 4.800000)" fill="#222222" fill-rule="nonzero">
                                <path d="M17.9012334,1.73158294 C17.3946958,2.47347156 16.7816208,3.10543283 16.0620082,3.62746672 C16.0697564,3.73303573 16.0736305,3.8918735 16.0736305,4.10398004 C16.0736305,5.08799941 15.9298048,6.06959747 15.6421535,7.04877422 C15.3545021,8.02795097 14.9176982,8.96790254 14.3317418,9.86862895 C13.7457854,10.7693553 13.0479646,11.5659655 12.2382794,12.2584595 C11.4285941,12.9509534 10.4523229,13.5034958 9.30946581,13.9160866 C8.16660867,14.3286774 6.9448169,14.5349728 5.6440905,14.5349728 C3.5937273,14.5349728 1.71721398,13.9863045 0.0145505561,12.8889679 C0.278957336,12.9189921 0.57387259,12.9340043 0.899296319,12.9340043 C2.60195976,12.9340043 4.11915104,12.4119704 5.45087016,11.3679026 C4.6566813,11.3524062 3.94530115,11.1083384 3.31672973,10.6356992 C2.6881583,10.16306 2.2566813,9.55967012 2.02229873,8.82552968 C2.27217766,8.86330207 2.5031704,8.88218827 2.71527694,8.88218827 C3.04070067,8.88218827 3.3622503,8.84054178 3.67992585,8.7572488 C2.83246822,8.58291466 2.13077331,8.16112289 1.5748411,7.49187348 C1.0189089,6.82262408 0.740942797,6.04538437 0.740942797,5.16015435 L0.740942797,5.11511802 C1.25522851,5.40276936 1.80777088,5.55773304 2.39856992,5.58000906 C1.89881205,5.24683714 1.50171762,4.81197031 1.20728662,4.27540857 C0.912855621,3.73884682 0.765155866,3.15628024 0.764187354,2.52770881 C0.764187354,1.86136498 0.930773312,1.24490009 1.26394523,0.678314142 C2.17919946,1.80567492 3.29348518,2.7078541 4.60680236,3.38485168 C5.92011955,4.06184925 7.32544642,4.43812044 8.82278298,4.51366523 C8.76273456,4.2260139 8.73271035,3.94611075 8.73271035,3.6739558 C8.73271035,2.65991222 9.09009534,1.79550544 9.80486532,1.08073546 C10.5196353,0.365965479 11.3840421,0.00858048861 12.3980857,0.00858048861 C13.4576498,0.00858048861 14.350628,0.394536904 15.0770203,1.16644974 C15.9022019,1.00761196 16.6779888,0.712696703 17.4043811,0.281703972 C17.1244779,1.15143763 16.5874319,1.82504538 15.793243,2.30252721 C16.4973593,2.22698242 17.2009912,2.03763617 17.9041389,1.73448847 L17.9012334,1.73158294 Z" id="路径"></path>
                            </g>
                        </g>
                    </g>
                </g>
            </g>
        </g>
    </g>
</svg>