<?xml version="1.0" encoding="UTF-8"?>
<svg width="190px" height="187px" viewBox="0 0 190 187" version="1.1" xmlns="http://www.w3.org/2000/svg" xmlns:xlink="http://www.w3.org/1999/xlink">
    <title>将产品按类别分组</title>
    <defs>
        <rect id="path-1" x="39.6548673" y="37.079646" width="93.9823009" height="119.469027"></rect>
        <filter x="-29.8%" y="-21.8%" width="159.6%" height="146.9%" filterUnits="objectBoundingBox" id="filter-2">
            <feGaussianBlur stdDeviation="0" in="SourceGraphic"></feGaussianBlur>
        </filter>
        <filter x="-45.8%" y="-34.3%" width="191.5%" height="172.0%" filterUnits="objectBoundingBox" id="filter-3">
            <feOffset dx="0" dy="2" in="SourceAlpha" result="shadowOffsetOuter1"></feOffset>
            <feGaussianBlur stdDeviation="14" in="shadowOffsetOuter1" result="shadowBlurOuter1"></feGaussianBlur>
            <feColorMatrix values="0 0 0 0 0.840636322   0 0 0 0 0.833155813   0 0 0 0 0.833155813  0 0 0 0.5 0" type="matrix" in="shadowBlurOuter1"></feColorMatrix>
        </filter>
    </defs>
    <g id="后台" stroke="none" stroke-width="1" fill="none" fill-rule="evenodd">
        <g id="列表展示、产品分类-缺省状态" transform="translate(-1046.000000, -193.000000)">
            <g id="将产品按类别分组" transform="translate(1046.000000, 193.000000)">
                <g id="编组-2备份-2" transform="translate(179.218835, 21.365478) rotate(41.000000) translate(-179.218835, -21.365478) translate(171.718835, 13.865478)" fill="#FFD7D7">
                    <rect id="矩形" x="0.589487322" y="6.2068339" width="14.3362832" height="2.38938053"></rect>
                    <polygon id="矩形备份" transform="translate(7.757629, 7.401524) rotate(-270.000000) translate(-7.757629, -7.401524) " points="0.589487322 6.2068339 14.9257705 6.2068339 14.9257705 8.59621443 0.589487322 8.59621443"></polygon>
                </g>
                <g id="编组备份-3" transform="translate(33.309735, 33.000000) scale(-1, 1) translate(-33.309735, -33.000000) translate(0.309735, 0.000000)" fill-rule="nonzero">
                    <path d="M0,32.6548673 C-2.2086242e-15,14.6200821 14.6200821,3.31293629e-15 32.6548673,0 C50.6896525,-3.31293629e-15 65.3097345,14.6200821 65.3097345,32.6548673 C65.3097345,50.6896525 50.6896525,65.3097345 32.6548673,65.3097345 C14.6200821,65.3097345 2.2086242e-15,50.6896525 0,32.6548673 Z" id="形状" fill="#FFC392"></path>
                    <path d="M48.9328697,38.2214605 L39.0459124,47.3848278 C38.2509046,48.1526792 37.1725164,48.5840708 36.0480568,48.5840708 C34.9235972,48.5840708 33.845209,48.1526792 33.0502013,47.3848278 L16.3330744,31.2450686 C15.4642139,30.3935159 15.0318006,29.2134024 15.1527155,28.023712 L15.9433835,18.6880479 C15.9433835,17.5497842 16.8990159,16.6270392 18.0778482,16.6270392 L28.8795747,15.15259 C30.1117214,15.0341294 31.3347177,15.4501654 32.2178773,16.2882058 L48.9328697,32.427965 C49.7293948,33.1957799 50.1769912,34.23794 50.1769912,35.3247127 C50.1769912,36.4114855 49.7293948,37.4536456 48.9328697,38.2214605 Z M22.6991442,20.5783083 C21.8938108,20.5783083 21.1677757,21.0521475 20.8595879,21.7788755 C20.5514001,22.5056035 20.721752,23.3421037 21.2912087,23.8983172 C21.8606654,24.4545307 22.7170822,24.620921 23.4611133,24.3199004 C24.2051443,24.0188798 24.6902655,23.3097292 24.6902655,22.5231245 C24.6902655,21.4490322 23.7988101,20.5783083 22.6991442,20.5783083 L22.6991442,20.5783083 Z M43.0465829,34.5811895 L34.2477876,42.5142715 L35.8029747,43.9164437 L44.6017699,35.9833618 L43.0465829,34.5811895 Z" id="形状" fill="#FFFFFF"></path>
                </g>
                <g id="矩形备份-5" opacity="0.62949673" filter="url(#filter-2)">
                    <use fill="black" fill-opacity="1" filter="url(#filter-3)" xlink:href="#path-1"></use>
                    <use fill="#FFFFFF" fill-rule="evenodd" xlink:href="#path-1"></use>
                </g>
                <g id="编组" transform="translate(143.141593, 140.725664) scale(-1, 1) translate(-143.141593, -140.725664) translate(121.141593, 116.725664)" fill-rule="nonzero">
                    <path d="M22.8039124,22.300885 L5.36562644,22.300885 C2.41453191,22.300885 0,19.7920354 0,16.7256637 L0,5.57522122 C0,2.50884956 2.41453191,0 5.36562644,0 L20.1210992,0 C23.0721938,0 25.4867257,2.50884956 25.4867257,5.57522122 L25.4867257,19.5132743 C25.4867257,21.0464602 24.2794597,22.300885 22.8039124,22.300885 L22.8039124,22.300885 Z" id="路径" fill="#A5C8CC"></path>
                    <path d="M33.4513275,22.300885 C32.1371681,22.300885 31.0619469,21.0464602 31.0619469,19.5132743 L31.0619469,5.57522122 C31.0619469,2.50884956 33.2123894,0 35.840708,0 L38.2300885,0 C40.8584071,0 43.0088496,2.50884956 43.0088496,5.57522122 L43.0088496,16.7256637 C43.0088496,19.7920354 40.8584071,22.300885 38.2300885,22.300885 L33.4513275,22.300885 Z" id="路径" fill="#B3D6DB" opacity="0.701376272"></path>
                    <path d="M37.6432231,47.7876106 L22.8877503,47.7876106 C19.9366558,47.7876106 17.5221239,45.2787611 17.5221239,42.2123894 L17.5221239,28.2743363 C17.5221239,26.7411504 18.7293898,25.4867257 20.2049371,25.4867257 L37.6432231,25.4867257 C40.5943177,25.4867257 43.0088496,27.9955752 43.0088496,31.0619469 L43.0088496,42.2123894 C43.0088496,45.2787611 40.5943177,47.7876106 37.6432231,47.7876106 Z" id="路径" fill="#A5C8CC"></path>
                    <path d="M7.1681416,47.7876106 L4.77876105,47.7876106 C2.15044248,47.7876106 0,45.2787611 0,42.2123894 L0,31.0619469 C0,27.9955752 2.15044248,25.4867257 4.77876105,25.4867257 L9.5575221,25.4867257 C10.8716814,25.4867257 11.9469027,26.7411504 11.9469027,28.2743363 L11.9469027,42.2123894 C11.9469027,45.2787611 9.79646017,47.7876106 7.1681416,47.7876106 Z" id="路径" fill="#A5C8CC"></path>
                </g>
                <g id="编组备份-4" transform="translate(70.716814, 76.106195)" fill="#C8D9DB" fill-rule="nonzero">
                    <path d="M2.58054999,20.6241267 C4.00297175,20.6241267 5.15603167,21.7797641 5.15603167,23.1996496 C5.15603167,24.6246034 4.00297175,25.7801584 2.58054999,25.7801584 C1.15305992,25.7801584 0,24.6246033 0,23.1996496 C0,21.7797641 1.15305992,20.6241267 2.58054999,20.6241267 Z M32.6548673,20.6241267 L32.6548673,25.7801584 L10.3120633,25.7801584 L10.3120633,20.6241267 L32.6548673,20.6241267 Z M2.58054999,10.3120633 C4.00297175,10.3120633 5.15603167,11.4675864 5.15603167,12.8875657 C5.15603167,14.3126132 4.00297175,15.468095 2.58054999,15.468095 C1.15305992,15.468095 0,14.3126132 0,12.8875657 C0,11.4675864 1.15305992,10.3120633 2.58054999,10.3120633 Z M32.6548673,10.3120633 L32.6548673,15.468095 L10.3120633,15.468095 L10.3120633,10.3120633 L32.6548673,10.3120633 Z M2.58054999,0 C4.00297175,0 5.15603167,1.15542714 5.15603167,2.57544045 C5.15603167,4.00043976 4.00297175,5.15603167 2.58054999,5.15603167 C1.15305992,5.15603167 0,4.00043972 0,2.57544045 C0,1.15546833 1.15305992,0 2.58054999,0 Z M32.6548673,0 L32.6548673,5.15603167 L10.3120633,5.15603167 L10.3120633,0 L32.6548673,0 Z" id="形状结合"></path>
                </g>
                <circle id="椭圆形备份-4" fill="#FDAD37" opacity="0.148414789" cx="9.55752212" cy="133.451327" r="7.16814159"></circle>
                <circle id="椭圆形备份-5" stroke="#FCCFA5" stroke-width="3.18584071" cx="171.823009" cy="79.6017699" r="5.17699115"></circle>
            </g>
        </g>
    </g>
</svg>